<mxfile host="app.diagrams.net" modified="2024-06-27T04:29:18.675Z" agent="Mozilla/5.0 (Windows NT 10.0; Win64; x64) AppleWebKit/537.36 (KHTML, like Gecko) Chrome/126.0.0.0 Safari/537.36" etag="3nMvoZC6F22aDufdBktE" version="24.6.3" type="github" pages="3">
  <diagram id="R2lEEEUBdFMjLlhIrx00" name="Page-1">
    <mxGraphModel dx="3209" dy="1925" grid="1" gridSize="10" guides="1" tooltips="1" connect="1" arrows="1" fold="1" page="1" pageScale="1" pageWidth="850" pageHeight="1100" math="0" shadow="0" extFonts="Permanent Marker^https://fonts.googleapis.com/css?family=Permanent+Marker">
      <root>
        <mxCell id="0" />
        <mxCell id="1" parent="0" />
        <mxCell id="4DCXVfrsB2d9O9tMW49A-30" value="Supplier" style="whiteSpace=wrap;html=1;align=center;" vertex="1" parent="1">
          <mxGeometry x="130" width="100" height="40" as="geometry" />
        </mxCell>
        <mxCell id="4DCXVfrsB2d9O9tMW49A-31" value="Id" style="ellipse;whiteSpace=wrap;html=1;align=center;fontStyle=4;" vertex="1" parent="1">
          <mxGeometry x="190" y="-80" width="100" height="40" as="geometry" />
        </mxCell>
        <mxCell id="4DCXVfrsB2d9O9tMW49A-32" value="" style="endArrow=none;html=1;rounded=0;entryX=0.5;entryY=0;entryDx=0;entryDy=0;" edge="1" parent="1" source="4DCXVfrsB2d9O9tMW49A-31" target="4DCXVfrsB2d9O9tMW49A-30">
          <mxGeometry relative="1" as="geometry">
            <mxPoint x="340" y="60" as="sourcePoint" />
            <mxPoint x="500" y="60" as="targetPoint" />
          </mxGeometry>
        </mxCell>
        <mxCell id="4DCXVfrsB2d9O9tMW49A-33" value="Supplier_name" style="ellipse;whiteSpace=wrap;html=1;align=center;" vertex="1" parent="1">
          <mxGeometry x="70" y="-80" width="100" height="40" as="geometry" />
        </mxCell>
        <mxCell id="4DCXVfrsB2d9O9tMW49A-34" value="" style="endArrow=none;html=1;rounded=0;entryX=0.5;entryY=0;entryDx=0;entryDy=0;" edge="1" parent="1" source="4DCXVfrsB2d9O9tMW49A-33" target="4DCXVfrsB2d9O9tMW49A-30">
          <mxGeometry relative="1" as="geometry">
            <mxPoint x="72" y="-39" as="sourcePoint" />
            <mxPoint x="130" y="-23" as="targetPoint" />
          </mxGeometry>
        </mxCell>
        <mxCell id="4DCXVfrsB2d9O9tMW49A-35" value="Supply " style="shape=rhombus;perimeter=rhombusPerimeter;whiteSpace=wrap;html=1;align=center;" vertex="1" parent="1">
          <mxGeometry x="120" y="110" width="120" height="60" as="geometry" />
        </mxCell>
        <mxCell id="4DCXVfrsB2d9O9tMW49A-36" value="Item" style="whiteSpace=wrap;html=1;align=center;" vertex="1" parent="1">
          <mxGeometry x="130" y="240" width="100" height="40" as="geometry" />
        </mxCell>
        <mxCell id="4DCXVfrsB2d9O9tMW49A-37" value="Id" style="ellipse;whiteSpace=wrap;html=1;align=center;fontStyle=4;" vertex="1" parent="1">
          <mxGeometry x="10" y="160" width="100" height="40" as="geometry" />
        </mxCell>
        <mxCell id="4DCXVfrsB2d9O9tMW49A-38" value="" style="endArrow=none;html=1;rounded=0;entryX=0;entryY=0.5;entryDx=0;entryDy=0;" edge="1" parent="1" source="4DCXVfrsB2d9O9tMW49A-37" target="4DCXVfrsB2d9O9tMW49A-36">
          <mxGeometry relative="1" as="geometry">
            <mxPoint x="338.5" y="300" as="sourcePoint" />
            <mxPoint x="498.5" y="300" as="targetPoint" />
          </mxGeometry>
        </mxCell>
        <mxCell id="4DCXVfrsB2d9O9tMW49A-39" value="Name" style="ellipse;whiteSpace=wrap;html=1;align=center;" vertex="1" parent="1">
          <mxGeometry x="-40" y="270" width="100" height="40" as="geometry" />
        </mxCell>
        <mxCell id="4DCXVfrsB2d9O9tMW49A-40" value="" style="endArrow=none;html=1;rounded=0;entryX=0;entryY=0.5;entryDx=0;entryDy=0;" edge="1" parent="1" source="4DCXVfrsB2d9O9tMW49A-39" target="4DCXVfrsB2d9O9tMW49A-36">
          <mxGeometry relative="1" as="geometry">
            <mxPoint x="90.5" y="221" as="sourcePoint" />
            <mxPoint x="148.5" y="237" as="targetPoint" />
          </mxGeometry>
        </mxCell>
        <mxCell id="4DCXVfrsB2d9O9tMW49A-41" value="in_stock_qty" style="ellipse;whiteSpace=wrap;html=1;align=center;" vertex="1" parent="1">
          <mxGeometry x="10" y="320" width="100" height="40" as="geometry" />
        </mxCell>
        <mxCell id="4DCXVfrsB2d9O9tMW49A-42" value="" style="endArrow=none;html=1;rounded=0;entryX=0;entryY=0.5;entryDx=0;entryDy=0;" edge="1" parent="1" source="4DCXVfrsB2d9O9tMW49A-41" target="4DCXVfrsB2d9O9tMW49A-36">
          <mxGeometry relative="1" as="geometry">
            <mxPoint x="58.5" y="334" as="sourcePoint" />
            <mxPoint x="141.5" y="290" as="targetPoint" />
          </mxGeometry>
        </mxCell>
        <mxCell id="4DCXVfrsB2d9O9tMW49A-43" value="Price" style="ellipse;whiteSpace=wrap;html=1;align=center;" vertex="1" parent="1">
          <mxGeometry x="-30" y="210" width="100" height="40" as="geometry" />
        </mxCell>
        <mxCell id="4DCXVfrsB2d9O9tMW49A-44" value="" style="endArrow=none;html=1;rounded=0;entryX=0;entryY=0.5;entryDx=0;entryDy=0;" edge="1" parent="1" source="4DCXVfrsB2d9O9tMW49A-43" target="4DCXVfrsB2d9O9tMW49A-36">
          <mxGeometry relative="1" as="geometry">
            <mxPoint x="62" y="161" as="sourcePoint" />
            <mxPoint x="97" y="230" as="targetPoint" />
          </mxGeometry>
        </mxCell>
        <mxCell id="4DCXVfrsB2d9O9tMW49A-45" value="Category" style="whiteSpace=wrap;html=1;align=center;" vertex="1" parent="1">
          <mxGeometry x="130" y="520" width="100" height="40" as="geometry" />
        </mxCell>
        <mxCell id="4DCXVfrsB2d9O9tMW49A-46" value="Id" style="ellipse;whiteSpace=wrap;html=1;align=center;fontStyle=4;" vertex="1" parent="1">
          <mxGeometry x="190" y="600" width="100" height="40" as="geometry" />
        </mxCell>
        <mxCell id="4DCXVfrsB2d9O9tMW49A-47" value="" style="endArrow=none;html=1;rounded=0;entryX=0.5;entryY=1;entryDx=0;entryDy=0;" edge="1" parent="1" source="4DCXVfrsB2d9O9tMW49A-46" target="4DCXVfrsB2d9O9tMW49A-45">
          <mxGeometry relative="1" as="geometry">
            <mxPoint x="360" y="630" as="sourcePoint" />
            <mxPoint x="520" y="630" as="targetPoint" />
          </mxGeometry>
        </mxCell>
        <mxCell id="4DCXVfrsB2d9O9tMW49A-48" value="Category_name" style="ellipse;whiteSpace=wrap;html=1;align=center;" vertex="1" parent="1">
          <mxGeometry x="70" y="600" width="100" height="40" as="geometry" />
        </mxCell>
        <mxCell id="4DCXVfrsB2d9O9tMW49A-49" value="" style="endArrow=none;html=1;rounded=0;entryX=0.5;entryY=1;entryDx=0;entryDy=0;" edge="1" parent="1" source="4DCXVfrsB2d9O9tMW49A-48" target="4DCXVfrsB2d9O9tMW49A-45">
          <mxGeometry relative="1" as="geometry">
            <mxPoint x="92" y="531" as="sourcePoint" />
            <mxPoint x="150" y="547" as="targetPoint" />
          </mxGeometry>
        </mxCell>
        <mxCell id="4DCXVfrsB2d9O9tMW49A-50" value="Categorized" style="shape=rhombus;perimeter=rhombusPerimeter;whiteSpace=wrap;html=1;align=center;" vertex="1" parent="1">
          <mxGeometry x="120" y="350" width="120" height="60" as="geometry" />
        </mxCell>
        <mxCell id="4DCXVfrsB2d9O9tMW49A-51" value="" style="shape=link;html=1;rounded=0;" edge="1" parent="1" source="4DCXVfrsB2d9O9tMW49A-36" target="4DCXVfrsB2d9O9tMW49A-50">
          <mxGeometry relative="1" as="geometry">
            <mxPoint x="250" y="340" as="sourcePoint" />
            <mxPoint x="410" y="340" as="targetPoint" />
          </mxGeometry>
        </mxCell>
        <mxCell id="4DCXVfrsB2d9O9tMW49A-52" value="N" style="resizable=0;html=1;whiteSpace=wrap;align=right;verticalAlign=bottom;" connectable="0" vertex="1" parent="4DCXVfrsB2d9O9tMW49A-51">
          <mxGeometry x="1" relative="1" as="geometry" />
        </mxCell>
        <mxCell id="4DCXVfrsB2d9O9tMW49A-53" value="" style="shape=link;html=1;rounded=0;" edge="1" parent="1" source="4DCXVfrsB2d9O9tMW49A-36" target="4DCXVfrsB2d9O9tMW49A-35">
          <mxGeometry relative="1" as="geometry">
            <mxPoint x="450" y="130" as="sourcePoint" />
            <mxPoint x="610" y="130" as="targetPoint" />
          </mxGeometry>
        </mxCell>
        <mxCell id="4DCXVfrsB2d9O9tMW49A-54" value="N" style="resizable=0;html=1;whiteSpace=wrap;align=right;verticalAlign=bottom;" connectable="0" vertex="1" parent="4DCXVfrsB2d9O9tMW49A-53">
          <mxGeometry x="1" relative="1" as="geometry" />
        </mxCell>
        <mxCell id="4DCXVfrsB2d9O9tMW49A-55" value="Genre" style="whiteSpace=wrap;html=1;align=center;" vertex="1" parent="1">
          <mxGeometry x="960" y="520" width="100" height="40" as="geometry" />
        </mxCell>
        <mxCell id="4DCXVfrsB2d9O9tMW49A-56" value="Id" style="ellipse;whiteSpace=wrap;html=1;align=center;fontStyle=4;" vertex="1" parent="1">
          <mxGeometry x="1040" y="600" width="100" height="40" as="geometry" />
        </mxCell>
        <mxCell id="4DCXVfrsB2d9O9tMW49A-57" value="" style="endArrow=none;html=1;rounded=0;entryX=0.5;entryY=1;entryDx=0;entryDy=0;" edge="1" parent="1" source="4DCXVfrsB2d9O9tMW49A-56" target="4DCXVfrsB2d9O9tMW49A-55">
          <mxGeometry relative="1" as="geometry">
            <mxPoint x="1190" y="630" as="sourcePoint" />
            <mxPoint x="1350" y="630" as="targetPoint" />
          </mxGeometry>
        </mxCell>
        <mxCell id="4DCXVfrsB2d9O9tMW49A-58" value="Genre_name" style="ellipse;whiteSpace=wrap;html=1;align=center;" vertex="1" parent="1">
          <mxGeometry x="880" y="600" width="100" height="40" as="geometry" />
        </mxCell>
        <mxCell id="4DCXVfrsB2d9O9tMW49A-59" value="" style="endArrow=none;html=1;rounded=0;entryX=0.5;entryY=1;entryDx=0;entryDy=0;" edge="1" parent="1" source="4DCXVfrsB2d9O9tMW49A-58" target="4DCXVfrsB2d9O9tMW49A-55">
          <mxGeometry relative="1" as="geometry">
            <mxPoint x="922" y="531" as="sourcePoint" />
            <mxPoint x="980" y="547" as="targetPoint" />
          </mxGeometry>
        </mxCell>
        <mxCell id="4DCXVfrsB2d9O9tMW49A-60" value="Book_catalouge" style="whiteSpace=wrap;html=1;align=center;" vertex="1" parent="1">
          <mxGeometry x="520" y="520" width="100" height="40" as="geometry" />
        </mxCell>
        <mxCell id="4DCXVfrsB2d9O9tMW49A-62" value="" style="endArrow=none;html=1;rounded=0;entryX=0.5;entryY=0;entryDx=0;entryDy=0;exitX=0.5;exitY=1;exitDx=0;exitDy=0;" edge="1" parent="1" source="4DCXVfrsB2d9O9tMW49A-134" target="4DCXVfrsB2d9O9tMW49A-60">
          <mxGeometry relative="1" as="geometry">
            <mxPoint x="524.3673942783171" y="459.1565257044226" as="sourcePoint" />
            <mxPoint x="888.5" y="580" as="targetPoint" />
          </mxGeometry>
        </mxCell>
        <mxCell id="4DCXVfrsB2d9O9tMW49A-63" value="Author" style="ellipse;whiteSpace=wrap;html=1;align=center;" vertex="1" parent="1">
          <mxGeometry x="520" y="380" width="100" height="40" as="geometry" />
        </mxCell>
        <mxCell id="4DCXVfrsB2d9O9tMW49A-64" value="" style="endArrow=none;html=1;rounded=0;entryX=0.5;entryY=0;entryDx=0;entryDy=0;" edge="1" parent="1" source="4DCXVfrsB2d9O9tMW49A-63" target="4DCXVfrsB2d9O9tMW49A-60">
          <mxGeometry relative="1" as="geometry">
            <mxPoint x="480.5" y="501" as="sourcePoint" />
            <mxPoint x="538.5" y="517" as="targetPoint" />
          </mxGeometry>
        </mxCell>
        <mxCell id="4DCXVfrsB2d9O9tMW49A-65" value="&lt;u&gt;ISBN&lt;/u&gt;" style="ellipse;whiteSpace=wrap;html=1;align=center;" vertex="1" parent="1">
          <mxGeometry x="580" y="420" width="100" height="40" as="geometry" />
        </mxCell>
        <mxCell id="4DCXVfrsB2d9O9tMW49A-66" value="" style="endArrow=none;html=1;rounded=0;entryX=0.5;entryY=0;entryDx=0;entryDy=0;" edge="1" parent="1" source="4DCXVfrsB2d9O9tMW49A-65" target="4DCXVfrsB2d9O9tMW49A-60">
          <mxGeometry relative="1" as="geometry">
            <mxPoint x="448.5" y="614" as="sourcePoint" />
            <mxPoint x="531.5" y="570" as="targetPoint" />
          </mxGeometry>
        </mxCell>
        <mxCell id="4DCXVfrsB2d9O9tMW49A-67" value="Divided" style="shape=rhombus;perimeter=rhombusPerimeter;whiteSpace=wrap;html=1;align=center;" vertex="1" parent="1">
          <mxGeometry x="740" y="510" width="120" height="60" as="geometry" />
        </mxCell>
        <mxCell id="4DCXVfrsB2d9O9tMW49A-68" value="" style="shape=link;html=1;rounded=0;" edge="1" parent="1" source="4DCXVfrsB2d9O9tMW49A-60" target="4DCXVfrsB2d9O9tMW49A-67">
          <mxGeometry relative="1" as="geometry">
            <mxPoint x="570" y="550" as="sourcePoint" />
            <mxPoint x="800" y="610" as="targetPoint" />
          </mxGeometry>
        </mxCell>
        <mxCell id="4DCXVfrsB2d9O9tMW49A-69" value="N" style="resizable=0;html=1;whiteSpace=wrap;align=right;verticalAlign=bottom;" connectable="0" vertex="1" parent="4DCXVfrsB2d9O9tMW49A-68">
          <mxGeometry x="1" relative="1" as="geometry" />
        </mxCell>
        <mxCell id="4DCXVfrsB2d9O9tMW49A-70" value="" style="endArrow=none;html=1;rounded=0;" edge="1" parent="1" source="4DCXVfrsB2d9O9tMW49A-55" target="4DCXVfrsB2d9O9tMW49A-67">
          <mxGeometry relative="1" as="geometry">
            <mxPoint x="570" y="790" as="sourcePoint" />
            <mxPoint x="800" y="750" as="targetPoint" />
          </mxGeometry>
        </mxCell>
        <mxCell id="4DCXVfrsB2d9O9tMW49A-71" value="1" style="resizable=0;html=1;whiteSpace=wrap;align=right;verticalAlign=bottom;" connectable="0" vertex="1" parent="4DCXVfrsB2d9O9tMW49A-70">
          <mxGeometry x="1" relative="1" as="geometry" />
        </mxCell>
        <mxCell id="4DCXVfrsB2d9O9tMW49A-72" value="&lt;div&gt;quantity&lt;/div&gt;" style="ellipse;whiteSpace=wrap;html=1;align=center;" vertex="1" parent="1">
          <mxGeometry x="570" y="160" width="100" height="40" as="geometry" />
        </mxCell>
        <mxCell id="4DCXVfrsB2d9O9tMW49A-73" value="" style="endArrow=none;html=1;rounded=0;" edge="1" parent="1" source="4DCXVfrsB2d9O9tMW49A-72" target="4DCXVfrsB2d9O9tMW49A-83">
          <mxGeometry relative="1" as="geometry">
            <mxPoint x="261" y="174" as="sourcePoint" />
            <mxPoint x="425" y="120" as="targetPoint" />
          </mxGeometry>
        </mxCell>
        <mxCell id="4DCXVfrsB2d9O9tMW49A-74" value="&lt;div&gt;Receipt&lt;/div&gt;" style="whiteSpace=wrap;html=1;align=center;" vertex="1" parent="1">
          <mxGeometry x="960" y="240" width="100" height="40" as="geometry" />
        </mxCell>
        <mxCell id="4DCXVfrsB2d9O9tMW49A-75" value="&lt;u&gt;Id&lt;/u&gt;" style="ellipse;whiteSpace=wrap;html=1;align=center;fontStyle=4;" vertex="1" parent="1">
          <mxGeometry x="1060" y="160" width="100" height="40" as="geometry" />
        </mxCell>
        <mxCell id="4DCXVfrsB2d9O9tMW49A-76" value="" style="endArrow=none;html=1;rounded=0;entryX=1;entryY=0.5;entryDx=0;entryDy=0;" edge="1" parent="1" source="4DCXVfrsB2d9O9tMW49A-75" target="4DCXVfrsB2d9O9tMW49A-74">
          <mxGeometry relative="1" as="geometry">
            <mxPoint x="1168.5" y="300" as="sourcePoint" />
            <mxPoint x="1328.5" y="300" as="targetPoint" />
          </mxGeometry>
        </mxCell>
        <mxCell id="4DCXVfrsB2d9O9tMW49A-77" value="item_change" style="ellipse;whiteSpace=wrap;html=1;align=center;" vertex="1" parent="1">
          <mxGeometry x="1100" y="210" width="100" height="40" as="geometry" />
        </mxCell>
        <mxCell id="4DCXVfrsB2d9O9tMW49A-78" value="" style="endArrow=none;html=1;rounded=0;entryX=1;entryY=0.5;entryDx=0;entryDy=0;" edge="1" parent="1" source="4DCXVfrsB2d9O9tMW49A-77" target="4DCXVfrsB2d9O9tMW49A-74">
          <mxGeometry relative="1" as="geometry">
            <mxPoint x="920.5" y="221" as="sourcePoint" />
            <mxPoint x="978.5" y="237" as="targetPoint" />
          </mxGeometry>
        </mxCell>
        <mxCell id="4DCXVfrsB2d9O9tMW49A-79" value="Total_billing" style="ellipse;whiteSpace=wrap;html=1;align=center;" vertex="1" parent="1">
          <mxGeometry x="1100" y="270" width="100" height="40" as="geometry" />
        </mxCell>
        <mxCell id="4DCXVfrsB2d9O9tMW49A-80" value="" style="endArrow=none;html=1;rounded=0;entryX=1;entryY=0.5;entryDx=0;entryDy=0;" edge="1" parent="1" source="4DCXVfrsB2d9O9tMW49A-79" target="4DCXVfrsB2d9O9tMW49A-74">
          <mxGeometry relative="1" as="geometry">
            <mxPoint x="1020" y="170" as="sourcePoint" />
            <mxPoint x="1020" y="250" as="targetPoint" />
          </mxGeometry>
        </mxCell>
        <mxCell id="4DCXVfrsB2d9O9tMW49A-81" value="total_paid" style="ellipse;whiteSpace=wrap;html=1;align=center;" vertex="1" parent="1">
          <mxGeometry x="1060" y="320" width="100" height="40" as="geometry" />
        </mxCell>
        <mxCell id="4DCXVfrsB2d9O9tMW49A-82" value="" style="endArrow=none;html=1;rounded=0;exitX=1;exitY=0.5;exitDx=0;exitDy=0;" edge="1" parent="1" source="4DCXVfrsB2d9O9tMW49A-74" target="4DCXVfrsB2d9O9tMW49A-81">
          <mxGeometry relative="1" as="geometry">
            <mxPoint x="1020" y="410" as="sourcePoint" />
            <mxPoint x="1020" y="290" as="targetPoint" />
          </mxGeometry>
        </mxCell>
        <mxCell id="4DCXVfrsB2d9O9tMW49A-83" value="Check_out" style="shape=rhombus;perimeter=rhombusPerimeter;whiteSpace=wrap;html=1;align=center;" vertex="1" parent="1">
          <mxGeometry x="560" y="230" width="120" height="60" as="geometry" />
        </mxCell>
        <mxCell id="4DCXVfrsB2d9O9tMW49A-84" value="" style="shape=link;html=1;rounded=0;entryX=1;entryY=0.5;entryDx=0;entryDy=0;" edge="1" parent="1" source="4DCXVfrsB2d9O9tMW49A-74" target="4DCXVfrsB2d9O9tMW49A-83">
          <mxGeometry relative="1" as="geometry">
            <mxPoint x="600" y="80" as="sourcePoint" />
            <mxPoint x="760" y="80" as="targetPoint" />
          </mxGeometry>
        </mxCell>
        <mxCell id="4DCXVfrsB2d9O9tMW49A-85" value="N" style="resizable=0;html=1;whiteSpace=wrap;align=right;verticalAlign=bottom;" connectable="0" vertex="1" parent="4DCXVfrsB2d9O9tMW49A-84">
          <mxGeometry x="1" relative="1" as="geometry" />
        </mxCell>
        <mxCell id="4DCXVfrsB2d9O9tMW49A-86" value="" style="shape=requiredInterface;html=1;verticalLabelPosition=bottom;sketch=0;rotation=35;" vertex="1" parent="1">
          <mxGeometry x="340" y="370" width="10" height="20" as="geometry" />
        </mxCell>
        <mxCell id="4DCXVfrsB2d9O9tMW49A-87" value="" style="endArrow=none;html=1;rounded=0;" edge="1" parent="1" source="4DCXVfrsB2d9O9tMW49A-36" target="4DCXVfrsB2d9O9tMW49A-60">
          <mxGeometry relative="1" as="geometry">
            <mxPoint x="360" y="540" as="sourcePoint" />
            <mxPoint x="540" y="530" as="targetPoint" />
          </mxGeometry>
        </mxCell>
        <mxCell id="4DCXVfrsB2d9O9tMW49A-88" value="(d)" style="edgeLabel;html=1;align=center;verticalAlign=middle;resizable=0;points=[];fontSize=15;" connectable="0" vertex="1" parent="4DCXVfrsB2d9O9tMW49A-87">
          <mxGeometry x="0.0764" y="2" relative="1" as="geometry">
            <mxPoint x="-39" y="2" as="offset" />
          </mxGeometry>
        </mxCell>
        <mxCell id="4DCXVfrsB2d9O9tMW49A-89" value="" style="shape=link;html=1;rounded=0;" edge="1" parent="1" source="4DCXVfrsB2d9O9tMW49A-45" target="4DCXVfrsB2d9O9tMW49A-50">
          <mxGeometry relative="1" as="geometry">
            <mxPoint x="210" y="470" as="sourcePoint" />
            <mxPoint x="370" y="470" as="targetPoint" />
          </mxGeometry>
        </mxCell>
        <mxCell id="4DCXVfrsB2d9O9tMW49A-90" value="1" style="resizable=0;html=1;whiteSpace=wrap;align=right;verticalAlign=bottom;" connectable="0" vertex="1" parent="4DCXVfrsB2d9O9tMW49A-89">
          <mxGeometry x="1" relative="1" as="geometry" />
        </mxCell>
        <mxCell id="4DCXVfrsB2d9O9tMW49A-91" value="" style="shape=link;html=1;rounded=0;" edge="1" parent="1" source="4DCXVfrsB2d9O9tMW49A-30" target="4DCXVfrsB2d9O9tMW49A-35">
          <mxGeometry relative="1" as="geometry">
            <mxPoint x="260" y="70" as="sourcePoint" />
            <mxPoint x="420" y="70" as="targetPoint" />
          </mxGeometry>
        </mxCell>
        <mxCell id="4DCXVfrsB2d9O9tMW49A-92" value="1" style="resizable=0;html=1;whiteSpace=wrap;align=right;verticalAlign=bottom;" connectable="0" vertex="1" parent="4DCXVfrsB2d9O9tMW49A-91">
          <mxGeometry x="1" relative="1" as="geometry" />
        </mxCell>
        <mxCell id="4DCXVfrsB2d9O9tMW49A-93" value="employee" style="whiteSpace=wrap;html=1;align=center;" vertex="1" parent="1">
          <mxGeometry x="-425" y="280" width="100" height="40" as="geometry" />
        </mxCell>
        <mxCell id="4DCXVfrsB2d9O9tMW49A-94" value="b_date" style="ellipse;whiteSpace=wrap;html=1;align=center;" vertex="1" parent="1">
          <mxGeometry x="-340" y="390" width="100" height="40" as="geometry" />
        </mxCell>
        <mxCell id="4DCXVfrsB2d9O9tMW49A-95" value="" style="endArrow=none;html=1;rounded=0;exitX=1;exitY=0.5;exitDx=0;exitDy=0;" edge="1" parent="1" source="4DCXVfrsB2d9O9tMW49A-93" target="4DCXVfrsB2d9O9tMW49A-94">
          <mxGeometry relative="1" as="geometry">
            <mxPoint x="-310" y="350" as="sourcePoint" />
            <mxPoint x="-150" y="350" as="targetPoint" />
          </mxGeometry>
        </mxCell>
        <mxCell id="4DCXVfrsB2d9O9tMW49A-96" value="name" style="ellipse;whiteSpace=wrap;html=1;align=center;" vertex="1" parent="1">
          <mxGeometry x="-180" y="310" width="100" height="40" as="geometry" />
        </mxCell>
        <mxCell id="4DCXVfrsB2d9O9tMW49A-97" value="" style="endArrow=none;html=1;rounded=0;exitX=1;exitY=0.5;exitDx=0;exitDy=0;" edge="1" parent="1" source="4DCXVfrsB2d9O9tMW49A-93" target="4DCXVfrsB2d9O9tMW49A-96">
          <mxGeometry relative="1" as="geometry">
            <mxPoint x="-340" y="380" as="sourcePoint" />
            <mxPoint x="-230" y="270" as="targetPoint" />
          </mxGeometry>
        </mxCell>
        <mxCell id="4DCXVfrsB2d9O9tMW49A-98" value="" style="endArrow=none;html=1;rounded=0;exitX=1;exitY=0.5;exitDx=0;exitDy=0;" edge="1" parent="1" source="4DCXVfrsB2d9O9tMW49A-93" target="4DCXVfrsB2d9O9tMW49A-99">
          <mxGeometry relative="1" as="geometry">
            <mxPoint x="-300" y="280" as="sourcePoint" />
            <mxPoint x="-223.44823658112864" y="325.13411707505384" as="targetPoint" />
          </mxGeometry>
        </mxCell>
        <mxCell id="4DCXVfrsB2d9O9tMW49A-99" value="address" style="ellipse;whiteSpace=wrap;html=1;align=center;" vertex="1" parent="1">
          <mxGeometry x="-260" y="210" width="100" height="40" as="geometry" />
        </mxCell>
        <mxCell id="4DCXVfrsB2d9O9tMW49A-100" value="" style="endArrow=none;html=1;rounded=0;exitX=1;exitY=0.5;exitDx=0;exitDy=0;" edge="1" parent="1" source="4DCXVfrsB2d9O9tMW49A-93" target="4DCXVfrsB2d9O9tMW49A-101">
          <mxGeometry relative="1" as="geometry">
            <mxPoint x="-325" y="360" as="sourcePoint" />
            <mxPoint x="-223.44823658112864" y="405.13411707505384" as="targetPoint" />
          </mxGeometry>
        </mxCell>
        <mxCell id="4DCXVfrsB2d9O9tMW49A-101" value="salary" style="ellipse;whiteSpace=wrap;html=1;align=center;" vertex="1" parent="1">
          <mxGeometry x="-180" y="250" width="100" height="40" as="geometry" />
        </mxCell>
        <mxCell id="4DCXVfrsB2d9O9tMW49A-102" value="" style="endArrow=none;html=1;rounded=0;exitX=1;exitY=0.5;exitDx=0;exitDy=0;" edge="1" parent="1" source="4DCXVfrsB2d9O9tMW49A-93" target="4DCXVfrsB2d9O9tMW49A-103">
          <mxGeometry relative="1" as="geometry">
            <mxPoint x="-490" y="320" as="sourcePoint" />
            <mxPoint x="-366.44823658112864" y="445.13411707505384" as="targetPoint" />
          </mxGeometry>
        </mxCell>
        <mxCell id="4DCXVfrsB2d9O9tMW49A-103" value="&lt;u&gt;ssn&lt;/u&gt;" style="ellipse;whiteSpace=wrap;html=1;align=center;" vertex="1" parent="1">
          <mxGeometry x="-340" y="170" width="100" height="40" as="geometry" />
        </mxCell>
        <mxCell id="4DCXVfrsB2d9O9tMW49A-104" value="" style="endArrow=none;html=1;rounded=0;exitX=1;exitY=0.5;exitDx=0;exitDy=0;" edge="1" parent="1" source="4DCXVfrsB2d9O9tMW49A-93" target="4DCXVfrsB2d9O9tMW49A-105">
          <mxGeometry relative="1" as="geometry">
            <mxPoint x="-370" y="240" as="sourcePoint" />
            <mxPoint x="-468" y="79" as="targetPoint" />
          </mxGeometry>
        </mxCell>
        <mxCell id="4DCXVfrsB2d9O9tMW49A-105" value="sex" style="ellipse;whiteSpace=wrap;html=1;align=center;" vertex="1" parent="1">
          <mxGeometry x="-260" y="350" width="100" height="40" as="geometry" />
        </mxCell>
        <mxCell id="4DCXVfrsB2d9O9tMW49A-106" value="works_for" style="shape=rhombus;perimeter=rhombusPerimeter;whiteSpace=wrap;html=1;align=center;" vertex="1" parent="1">
          <mxGeometry x="-680" y="200" width="120" height="60" as="geometry" />
        </mxCell>
        <mxCell id="4DCXVfrsB2d9O9tMW49A-107" value="manages" style="shape=rhombus;perimeter=rhombusPerimeter;whiteSpace=wrap;html=1;align=center;" vertex="1" parent="1">
          <mxGeometry x="-680" y="340" width="120" height="60" as="geometry" />
        </mxCell>
        <mxCell id="4DCXVfrsB2d9O9tMW49A-108" value="branch" style="whiteSpace=wrap;html=1;align=center;" vertex="1" parent="1">
          <mxGeometry x="-940" y="280" width="100" height="40" as="geometry" />
        </mxCell>
        <mxCell id="4DCXVfrsB2d9O9tMW49A-109" value="name" style="ellipse;whiteSpace=wrap;html=1;align=center;" vertex="1" parent="1">
          <mxGeometry x="-1070" y="320" width="100" height="40" as="geometry" />
        </mxCell>
        <mxCell id="4DCXVfrsB2d9O9tMW49A-110" value="location" style="ellipse;whiteSpace=wrap;html=1;align=center;" vertex="1" parent="1">
          <mxGeometry x="-1140" y="280" width="100" height="40" as="geometry" />
        </mxCell>
        <mxCell id="4DCXVfrsB2d9O9tMW49A-111" value="" style="endArrow=none;html=1;rounded=0;entryX=0;entryY=0.5;entryDx=0;entryDy=0;" edge="1" parent="1" source="4DCXVfrsB2d9O9tMW49A-109" target="4DCXVfrsB2d9O9tMW49A-108">
          <mxGeometry relative="1" as="geometry">
            <mxPoint x="-770" y="270" as="sourcePoint" />
            <mxPoint x="-610" y="270" as="targetPoint" />
          </mxGeometry>
        </mxCell>
        <mxCell id="4DCXVfrsB2d9O9tMW49A-112" value="" style="endArrow=none;html=1;rounded=0;entryX=0;entryY=0.5;entryDx=0;entryDy=0;" edge="1" parent="1" source="4DCXVfrsB2d9O9tMW49A-110" target="4DCXVfrsB2d9O9tMW49A-108">
          <mxGeometry relative="1" as="geometry">
            <mxPoint x="-999" y="372" as="sourcePoint" />
            <mxPoint x="-930" y="310" as="targetPoint" />
          </mxGeometry>
        </mxCell>
        <mxCell id="4DCXVfrsB2d9O9tMW49A-113" value="" style="shape=link;html=1;rounded=0;entryX=1;entryY=0.5;entryDx=0;entryDy=0;exitX=0;exitY=0.5;exitDx=0;exitDy=0;" edge="1" parent="1" source="4DCXVfrsB2d9O9tMW49A-93" target="4DCXVfrsB2d9O9tMW49A-106">
          <mxGeometry relative="1" as="geometry">
            <mxPoint x="-540" y="210" as="sourcePoint" />
            <mxPoint x="-380" y="210" as="targetPoint" />
          </mxGeometry>
        </mxCell>
        <mxCell id="4DCXVfrsB2d9O9tMW49A-114" value="N" style="resizable=0;html=1;whiteSpace=wrap;align=right;verticalAlign=bottom;" connectable="0" vertex="1" parent="4DCXVfrsB2d9O9tMW49A-113">
          <mxGeometry x="1" relative="1" as="geometry" />
        </mxCell>
        <mxCell id="4DCXVfrsB2d9O9tMW49A-115" value="" style="shape=link;html=1;rounded=0;exitX=1;exitY=0.5;exitDx=0;exitDy=0;entryX=0;entryY=0.5;entryDx=0;entryDy=0;" edge="1" parent="1" source="4DCXVfrsB2d9O9tMW49A-108" target="4DCXVfrsB2d9O9tMW49A-106">
          <mxGeometry relative="1" as="geometry">
            <mxPoint x="-770" y="330" as="sourcePoint" />
            <mxPoint x="-610" y="330" as="targetPoint" />
          </mxGeometry>
        </mxCell>
        <mxCell id="4DCXVfrsB2d9O9tMW49A-116" value="1" style="resizable=0;html=1;whiteSpace=wrap;align=right;verticalAlign=bottom;" connectable="0" vertex="1" parent="4DCXVfrsB2d9O9tMW49A-115">
          <mxGeometry x="1" relative="1" as="geometry" />
        </mxCell>
        <mxCell id="4DCXVfrsB2d9O9tMW49A-117" value="" style="shape=link;html=1;rounded=0;entryX=0;entryY=0.5;entryDx=0;entryDy=0;exitX=1;exitY=0.5;exitDx=0;exitDy=0;" edge="1" parent="1" source="4DCXVfrsB2d9O9tMW49A-108" target="4DCXVfrsB2d9O9tMW49A-107">
          <mxGeometry relative="1" as="geometry">
            <mxPoint x="-900" y="370" as="sourcePoint" />
            <mxPoint x="-740" y="370" as="targetPoint" />
          </mxGeometry>
        </mxCell>
        <mxCell id="4DCXVfrsB2d9O9tMW49A-118" value="1" style="resizable=0;html=1;whiteSpace=wrap;align=right;verticalAlign=bottom;" connectable="0" vertex="1" parent="4DCXVfrsB2d9O9tMW49A-117">
          <mxGeometry x="1" relative="1" as="geometry" />
        </mxCell>
        <mxCell id="4DCXVfrsB2d9O9tMW49A-119" value="" style="endArrow=none;html=1;rounded=0;exitX=0;exitY=0.5;exitDx=0;exitDy=0;entryX=1;entryY=0.5;entryDx=0;entryDy=0;" edge="1" parent="1" source="4DCXVfrsB2d9O9tMW49A-93" target="4DCXVfrsB2d9O9tMW49A-107">
          <mxGeometry relative="1" as="geometry">
            <mxPoint x="-560" y="420" as="sourcePoint" />
            <mxPoint x="-400" y="420" as="targetPoint" />
          </mxGeometry>
        </mxCell>
        <mxCell id="4DCXVfrsB2d9O9tMW49A-120" value="1" style="resizable=0;html=1;whiteSpace=wrap;align=right;verticalAlign=bottom;" connectable="0" vertex="1" parent="4DCXVfrsB2d9O9tMW49A-119">
          <mxGeometry x="1" relative="1" as="geometry" />
        </mxCell>
        <mxCell id="4DCXVfrsB2d9O9tMW49A-121" value="supervision" style="shape=rhombus;perimeter=rhombusPerimeter;whiteSpace=wrap;html=1;align=center;" vertex="1" parent="1">
          <mxGeometry x="-435" y="40" width="120" height="60" as="geometry" />
        </mxCell>
        <mxCell id="4DCXVfrsB2d9O9tMW49A-122" value="" style="endArrow=none;html=1;rounded=0;exitX=0.5;exitY=0;exitDx=0;exitDy=0;entryX=0;entryY=0.5;entryDx=0;entryDy=0;" edge="1" parent="1" source="4DCXVfrsB2d9O9tMW49A-93" target="4DCXVfrsB2d9O9tMW49A-121">
          <mxGeometry relative="1" as="geometry">
            <mxPoint x="-560" y="170" as="sourcePoint" />
            <mxPoint x="-400" y="170" as="targetPoint" />
          </mxGeometry>
        </mxCell>
        <mxCell id="4DCXVfrsB2d9O9tMW49A-123" value="1" style="resizable=0;html=1;whiteSpace=wrap;align=right;verticalAlign=bottom;" connectable="0" vertex="1" parent="4DCXVfrsB2d9O9tMW49A-122">
          <mxGeometry x="1" relative="1" as="geometry" />
        </mxCell>
        <mxCell id="4DCXVfrsB2d9O9tMW49A-124" value="supervisor" style="edgeLabel;html=1;align=center;verticalAlign=middle;resizable=0;points=[];" vertex="1" connectable="0" parent="4DCXVfrsB2d9O9tMW49A-122">
          <mxGeometry x="0.6294" y="2" relative="1" as="geometry">
            <mxPoint x="-34" y="-15" as="offset" />
          </mxGeometry>
        </mxCell>
        <mxCell id="4DCXVfrsB2d9O9tMW49A-125" value="" style="endArrow=none;html=1;rounded=0;entryX=1;entryY=0.5;entryDx=0;entryDy=0;exitX=0.5;exitY=0;exitDx=0;exitDy=0;" edge="1" parent="1" source="4DCXVfrsB2d9O9tMW49A-93" target="4DCXVfrsB2d9O9tMW49A-121">
          <mxGeometry relative="1" as="geometry">
            <mxPoint x="-630" y="150" as="sourcePoint" />
            <mxPoint x="-470" y="150" as="targetPoint" />
          </mxGeometry>
        </mxCell>
        <mxCell id="4DCXVfrsB2d9O9tMW49A-126" value="N" style="resizable=0;html=1;whiteSpace=wrap;align=right;verticalAlign=bottom;" connectable="0" vertex="1" parent="4DCXVfrsB2d9O9tMW49A-125">
          <mxGeometry x="1" relative="1" as="geometry" />
        </mxCell>
        <mxCell id="4DCXVfrsB2d9O9tMW49A-127" value="supervisee" style="edgeLabel;html=1;align=center;verticalAlign=middle;resizable=0;points=[];" vertex="1" connectable="0" parent="4DCXVfrsB2d9O9tMW49A-125">
          <mxGeometry x="0.6902" y="1" relative="1" as="geometry">
            <mxPoint x="35" y="-7" as="offset" />
          </mxGeometry>
        </mxCell>
        <mxCell id="4DCXVfrsB2d9O9tMW49A-128" value="&lt;div&gt;nunber_of_employees&lt;/div&gt;" style="ellipse;whiteSpace=wrap;html=1;align=center;dashed=1;" vertex="1" parent="1">
          <mxGeometry x="-1070" y="240" width="140" height="40" as="geometry" />
        </mxCell>
        <mxCell id="4DCXVfrsB2d9O9tMW49A-129" value="" style="endArrow=none;html=1;rounded=0;entryX=0;entryY=0.5;entryDx=0;entryDy=0;" edge="1" parent="1" source="4DCXVfrsB2d9O9tMW49A-128" target="4DCXVfrsB2d9O9tMW49A-108">
          <mxGeometry relative="1" as="geometry">
            <mxPoint x="-960" y="200" as="sourcePoint" />
            <mxPoint x="-800" y="200" as="targetPoint" />
          </mxGeometry>
        </mxCell>
        <mxCell id="4DCXVfrsB2d9O9tMW49A-130" value="start_date" style="ellipse;whiteSpace=wrap;html=1;align=center;" vertex="1" parent="1">
          <mxGeometry x="-740" y="280" width="100" height="40" as="geometry" />
        </mxCell>
        <mxCell id="4DCXVfrsB2d9O9tMW49A-131" value="" style="endArrow=none;html=1;rounded=0;" edge="1" parent="1" source="4DCXVfrsB2d9O9tMW49A-130" target="4DCXVfrsB2d9O9tMW49A-107">
          <mxGeometry relative="1" as="geometry">
            <mxPoint x="-620" y="300" as="sourcePoint" />
            <mxPoint x="-460" y="300" as="targetPoint" />
          </mxGeometry>
        </mxCell>
        <mxCell id="4DCXVfrsB2d9O9tMW49A-132" value="" style="endArrow=none;html=1;rounded=0;exitX=1;exitY=0.5;exitDx=0;exitDy=0;entryX=0;entryY=0.5;entryDx=0;entryDy=0;" edge="1" parent="1" source="4DCXVfrsB2d9O9tMW49A-36" target="4DCXVfrsB2d9O9tMW49A-83">
          <mxGeometry relative="1" as="geometry">
            <mxPoint x="320" y="240" as="sourcePoint" />
            <mxPoint x="480" y="240" as="targetPoint" />
          </mxGeometry>
        </mxCell>
        <mxCell id="4DCXVfrsB2d9O9tMW49A-133" value="N" style="resizable=0;html=1;whiteSpace=wrap;align=right;verticalAlign=bottom;" connectable="0" vertex="1" parent="4DCXVfrsB2d9O9tMW49A-132">
          <mxGeometry x="1" relative="1" as="geometry" />
        </mxCell>
        <mxCell id="4DCXVfrsB2d9O9tMW49A-134" value="title" style="ellipse;whiteSpace=wrap;html=1;align=center;" vertex="1" parent="1">
          <mxGeometry x="460" y="420" width="100" height="40" as="geometry" />
        </mxCell>
        <mxCell id="4DCXVfrsB2d9O9tMW49A-136" value="Warehouse" style="rounded=1;arcSize=10;whiteSpace=wrap;html=1;align=center;" vertex="1" parent="1">
          <mxGeometry x="670" width="100" height="40" as="geometry" />
        </mxCell>
        <mxCell id="4DCXVfrsB2d9O9tMW49A-140" value="name_warehouse" style="ellipse;whiteSpace=wrap;html=1;align=center;" vertex="1" parent="1">
          <mxGeometry x="590" y="-90" width="100" height="40" as="geometry" />
        </mxCell>
        <mxCell id="4DCXVfrsB2d9O9tMW49A-141" value="location" style="ellipse;whiteSpace=wrap;html=1;align=center;" vertex="1" parent="1">
          <mxGeometry x="730" y="-90" width="100" height="40" as="geometry" />
        </mxCell>
        <mxCell id="4DCXVfrsB2d9O9tMW49A-142" value="" style="endArrow=none;html=1;rounded=0;exitX=0.5;exitY=1;exitDx=0;exitDy=0;entryX=0.5;entryY=0;entryDx=0;entryDy=0;" edge="1" parent="1" source="4DCXVfrsB2d9O9tMW49A-140" target="4DCXVfrsB2d9O9tMW49A-136">
          <mxGeometry relative="1" as="geometry">
            <mxPoint x="520" y="270" as="sourcePoint" />
            <mxPoint x="680" y="270" as="targetPoint" />
          </mxGeometry>
        </mxCell>
        <mxCell id="4DCXVfrsB2d9O9tMW49A-143" value="" style="endArrow=none;html=1;rounded=0;exitX=0.5;exitY=1;exitDx=0;exitDy=0;entryX=0.5;entryY=0;entryDx=0;entryDy=0;" edge="1" parent="1" source="4DCXVfrsB2d9O9tMW49A-141" target="4DCXVfrsB2d9O9tMW49A-136">
          <mxGeometry relative="1" as="geometry">
            <mxPoint x="650" y="-60" as="sourcePoint" />
            <mxPoint x="720" y="-10" as="targetPoint" />
          </mxGeometry>
        </mxCell>
        <mxCell id="4DCXVfrsB2d9O9tMW49A-144" value="Suppied" style="shape=rhombus;perimeter=rhombusPerimeter;whiteSpace=wrap;html=1;align=center;" vertex="1" parent="1">
          <mxGeometry x="380" y="-10" width="120" height="60" as="geometry" />
        </mxCell>
        <mxCell id="4DCXVfrsB2d9O9tMW49A-145" value="" style="shape=link;html=1;rounded=0;exitX=1;exitY=0.5;exitDx=0;exitDy=0;entryX=0;entryY=0.5;entryDx=0;entryDy=0;" edge="1" parent="1" source="4DCXVfrsB2d9O9tMW49A-144" target="4DCXVfrsB2d9O9tMW49A-136">
          <mxGeometry relative="1" as="geometry">
            <mxPoint x="500" y="60" as="sourcePoint" />
            <mxPoint x="660" y="60" as="targetPoint" />
          </mxGeometry>
        </mxCell>
        <mxCell id="4DCXVfrsB2d9O9tMW49A-146" value="M" style="resizable=0;html=1;whiteSpace=wrap;align=left;verticalAlign=bottom;" connectable="0" vertex="1" parent="4DCXVfrsB2d9O9tMW49A-145">
          <mxGeometry x="-1" relative="1" as="geometry" />
        </mxCell>
        <mxCell id="4DCXVfrsB2d9O9tMW49A-147" value="N" style="resizable=0;html=1;whiteSpace=wrap;align=right;verticalAlign=bottom;" connectable="0" vertex="1" parent="4DCXVfrsB2d9O9tMW49A-145">
          <mxGeometry x="1" relative="1" as="geometry" />
        </mxCell>
        <mxCell id="4DCXVfrsB2d9O9tMW49A-148" value="" style="shape=link;html=1;rounded=0;exitX=1;exitY=0.5;exitDx=0;exitDy=0;entryX=0;entryY=0.5;entryDx=0;entryDy=0;" edge="1" parent="1" source="4DCXVfrsB2d9O9tMW49A-30" target="4DCXVfrsB2d9O9tMW49A-144">
          <mxGeometry relative="1" as="geometry">
            <mxPoint x="510" y="30" as="sourcePoint" />
            <mxPoint x="680" y="30" as="targetPoint" />
          </mxGeometry>
        </mxCell>
        <mxCell id="4DCXVfrsB2d9O9tMW49A-149" value="M" style="resizable=0;html=1;whiteSpace=wrap;align=left;verticalAlign=bottom;" connectable="0" vertex="1" parent="4DCXVfrsB2d9O9tMW49A-148">
          <mxGeometry x="-1" relative="1" as="geometry" />
        </mxCell>
        <mxCell id="4DCXVfrsB2d9O9tMW49A-150" value="N" style="resizable=0;html=1;whiteSpace=wrap;align=right;verticalAlign=bottom;" connectable="0" vertex="1" parent="4DCXVfrsB2d9O9tMW49A-148">
          <mxGeometry x="1" relative="1" as="geometry" />
        </mxCell>
      </root>
    </mxGraphModel>
  </diagram>
  <diagram id="0LhfxQ0tsW1-PUvaSkPL" name="Page-2">
    <mxGraphModel dx="1434" dy="784" grid="1" gridSize="10" guides="1" tooltips="1" connect="1" arrows="1" fold="1" page="1" pageScale="1" pageWidth="850" pageHeight="1100" math="0" shadow="0">
      <root>
        <mxCell id="0" />
        <mxCell id="1" parent="0" />
        <mxCell id="B2deVuTes-0Ho1UpX5tT-1" value="" style="childLayout=tableLayout;recursiveResize=0;shadow=0;fillColor=none;strokeColor=#C0C0C0;perimeterSpacing=0;strokeWidth=1;" vertex="1" parent="1">
          <mxGeometry x="80" y="80" width="410" height="40" as="geometry" />
        </mxCell>
        <mxCell id="B2deVuTes-0Ho1UpX5tT-2" value="" style="shape=tableRow;horizontal=0;startSize=0;swimlaneHead=0;swimlaneBody=0;top=0;left=0;bottom=0;right=0;dropTarget=0;collapsible=0;recursiveResize=0;expand=0;fontStyle=0;fillColor=none;sketch=1;curveFitting=1;jiggle=2;" vertex="1" parent="B2deVuTes-0Ho1UpX5tT-1">
          <mxGeometry width="410" height="40" as="geometry" />
        </mxCell>
        <mxCell id="B2deVuTes-0Ho1UpX5tT-3" value="&lt;u&gt;id&lt;/u&gt;" style="connectable=0;recursiveResize=0;strokeColor=default;fillColor=none;align=center;whiteSpace=wrap;html=1;" vertex="1" parent="B2deVuTes-0Ho1UpX5tT-2">
          <mxGeometry width="50" height="40" as="geometry">
            <mxRectangle width="50" height="40" as="alternateBounds" />
          </mxGeometry>
        </mxCell>
        <mxCell id="B2deVuTes-0Ho1UpX5tT-4" value="category_id" style="connectable=0;recursiveResize=0;strokeColor=default;fillColor=none;align=center;whiteSpace=wrap;html=1;" vertex="1" parent="B2deVuTes-0Ho1UpX5tT-2">
          <mxGeometry x="50" width="80" height="40" as="geometry">
            <mxRectangle width="80" height="40" as="alternateBounds" />
          </mxGeometry>
        </mxCell>
        <mxCell id="B2deVuTes-0Ho1UpX5tT-5" value="supplier_id" style="connectable=0;recursiveResize=0;strokeColor=default;fillColor=none;align=center;whiteSpace=wrap;html=1;" vertex="1" parent="B2deVuTes-0Ho1UpX5tT-2">
          <mxGeometry x="130" width="70" height="40" as="geometry">
            <mxRectangle width="70" height="40" as="alternateBounds" />
          </mxGeometry>
        </mxCell>
        <mxCell id="B2deVuTes-0Ho1UpX5tT-6" value="name" style="connectable=0;recursiveResize=0;strokeColor=default;fillColor=none;align=center;whiteSpace=wrap;html=1;" vertex="1" parent="B2deVuTes-0Ho1UpX5tT-2">
          <mxGeometry x="200" width="60" height="40" as="geometry">
            <mxRectangle width="60" height="40" as="alternateBounds" />
          </mxGeometry>
        </mxCell>
        <mxCell id="B2deVuTes-0Ho1UpX5tT-7" value="price" style="connectable=0;recursiveResize=0;strokeColor=default;fillColor=none;align=center;whiteSpace=wrap;html=1;" vertex="1" parent="B2deVuTes-0Ho1UpX5tT-2">
          <mxGeometry x="260" width="60" height="40" as="geometry">
            <mxRectangle width="60" height="40" as="alternateBounds" />
          </mxGeometry>
        </mxCell>
        <mxCell id="B2deVuTes-0Ho1UpX5tT-8" value="in_storage" style="connectable=0;recursiveResize=0;strokeColor=default;fillColor=none;align=center;whiteSpace=wrap;html=1;" vertex="1" parent="B2deVuTes-0Ho1UpX5tT-2">
          <mxGeometry x="320" width="90" height="40" as="geometry">
            <mxRectangle width="90" height="40" as="alternateBounds" />
          </mxGeometry>
        </mxCell>
        <mxCell id="B2deVuTes-0Ho1UpX5tT-9" value="&lt;div&gt;Item&lt;/div&gt;" style="text;html=1;align=center;verticalAlign=middle;resizable=0;points=[];autosize=1;strokeColor=none;fillColor=none;sketch=1;curveFitting=1;jiggle=2;" vertex="1" parent="1">
          <mxGeometry x="80" y="50" width="50" height="30" as="geometry" />
        </mxCell>
        <mxCell id="B2deVuTes-0Ho1UpX5tT-10" value="" style="childLayout=tableLayout;recursiveResize=0;shadow=0;fillColor=none;strokeColor=default;perimeterSpacing=0;strokeWidth=1;" vertex="1" parent="1">
          <mxGeometry x="320" y="240" width="160" height="40" as="geometry" />
        </mxCell>
        <mxCell id="B2deVuTes-0Ho1UpX5tT-11" value="" style="shape=tableRow;horizontal=0;startSize=0;swimlaneHead=0;swimlaneBody=0;top=0;left=0;bottom=0;right=0;dropTarget=0;collapsible=0;recursiveResize=0;expand=0;fontStyle=0;fillColor=none;sketch=1;curveFitting=1;jiggle=2;" vertex="1" parent="B2deVuTes-0Ho1UpX5tT-10">
          <mxGeometry width="160" height="40" as="geometry" />
        </mxCell>
        <mxCell id="B2deVuTes-0Ho1UpX5tT-12" value="id" style="connectable=0;recursiveResize=0;strokeColor=default;fillColor=none;align=center;whiteSpace=wrap;html=1;fontStyle=4" vertex="1" parent="B2deVuTes-0Ho1UpX5tT-11">
          <mxGeometry width="60" height="40" as="geometry">
            <mxRectangle width="60" height="40" as="alternateBounds" />
          </mxGeometry>
        </mxCell>
        <mxCell id="B2deVuTes-0Ho1UpX5tT-13" value="supplier_name" style="connectable=0;recursiveResize=0;strokeColor=default;fillColor=none;align=center;whiteSpace=wrap;html=1;" vertex="1" parent="B2deVuTes-0Ho1UpX5tT-11">
          <mxGeometry x="60" width="100" height="40" as="geometry">
            <mxRectangle width="100" height="40" as="alternateBounds" />
          </mxGeometry>
        </mxCell>
        <mxCell id="B2deVuTes-0Ho1UpX5tT-14" value="supplier" style="text;html=1;align=center;verticalAlign=middle;resizable=0;points=[];autosize=1;strokeColor=none;fillColor=none;sketch=1;curveFitting=1;jiggle=2;" vertex="1" parent="1">
          <mxGeometry x="320" y="210" width="60" height="30" as="geometry" />
        </mxCell>
        <mxCell id="B2deVuTes-0Ho1UpX5tT-15" value="" style="childLayout=tableLayout;recursiveResize=0;shadow=0;fillColor=none;strokeColor=#C0C0C0;perimeterSpacing=0;strokeWidth=1;" vertex="1" parent="1">
          <mxGeometry x="80" y="360" width="210" height="40" as="geometry" />
        </mxCell>
        <mxCell id="B2deVuTes-0Ho1UpX5tT-16" value="" style="shape=tableRow;horizontal=0;startSize=0;swimlaneHead=0;swimlaneBody=0;top=0;left=0;bottom=0;right=0;dropTarget=0;collapsible=0;recursiveResize=0;expand=0;fontStyle=0;fillColor=none;sketch=1;curveFitting=1;jiggle=2;" vertex="1" parent="B2deVuTes-0Ho1UpX5tT-15">
          <mxGeometry width="210" height="40" as="geometry" />
        </mxCell>
        <mxCell id="B2deVuTes-0Ho1UpX5tT-17" value="&lt;u&gt;item_id&lt;/u&gt;" style="connectable=0;recursiveResize=0;strokeColor=default;fillColor=none;align=center;whiteSpace=wrap;html=1;" vertex="1" parent="B2deVuTes-0Ho1UpX5tT-16">
          <mxGeometry width="70" height="40" as="geometry">
            <mxRectangle width="70" height="40" as="alternateBounds" />
          </mxGeometry>
        </mxCell>
        <mxCell id="B2deVuTes-0Ho1UpX5tT-18" value="&lt;u&gt;receipt_id&lt;/u&gt;" style="connectable=0;recursiveResize=0;strokeColor=default;fillColor=none;align=center;whiteSpace=wrap;html=1;" vertex="1" parent="B2deVuTes-0Ho1UpX5tT-16">
          <mxGeometry x="70" width="80" height="40" as="geometry">
            <mxRectangle width="80" height="40" as="alternateBounds" />
          </mxGeometry>
        </mxCell>
        <mxCell id="B2deVuTes-0Ho1UpX5tT-19" value="quantity" style="connectable=0;recursiveResize=0;strokeColor=default;fillColor=none;align=center;whiteSpace=wrap;html=1;" vertex="1" parent="B2deVuTes-0Ho1UpX5tT-16">
          <mxGeometry x="150" width="60" height="40" as="geometry">
            <mxRectangle width="60" height="40" as="alternateBounds" />
          </mxGeometry>
        </mxCell>
        <mxCell id="B2deVuTes-0Ho1UpX5tT-20" value="check_out" style="text;html=1;align=center;verticalAlign=middle;resizable=0;points=[];autosize=1;strokeColor=none;fillColor=none;sketch=1;curveFitting=1;jiggle=2;" vertex="1" parent="1">
          <mxGeometry x="80" y="330" width="80" height="30" as="geometry" />
        </mxCell>
        <mxCell id="B2deVuTes-0Ho1UpX5tT-21" value="" style="childLayout=tableLayout;recursiveResize=0;shadow=0;fillColor=none;strokeColor=default;perimeterSpacing=0;strokeWidth=1;" vertex="1" parent="1">
          <mxGeometry x="80" y="240" width="160" height="40" as="geometry" />
        </mxCell>
        <mxCell id="B2deVuTes-0Ho1UpX5tT-22" value="" style="shape=tableRow;horizontal=0;startSize=0;swimlaneHead=0;swimlaneBody=0;top=0;left=0;bottom=0;right=0;dropTarget=0;collapsible=0;recursiveResize=0;expand=0;fontStyle=0;fillColor=none;sketch=1;curveFitting=1;jiggle=2;" vertex="1" parent="B2deVuTes-0Ho1UpX5tT-21">
          <mxGeometry width="160" height="40" as="geometry" />
        </mxCell>
        <mxCell id="B2deVuTes-0Ho1UpX5tT-23" value="id" style="connectable=0;recursiveResize=0;strokeColor=default;fillColor=none;align=center;whiteSpace=wrap;html=1;fontStyle=4" vertex="1" parent="B2deVuTes-0Ho1UpX5tT-22">
          <mxGeometry width="60" height="40" as="geometry">
            <mxRectangle width="60" height="40" as="alternateBounds" />
          </mxGeometry>
        </mxCell>
        <mxCell id="B2deVuTes-0Ho1UpX5tT-24" value="category_name" style="connectable=0;recursiveResize=0;strokeColor=default;fillColor=none;align=center;whiteSpace=wrap;html=1;" vertex="1" parent="B2deVuTes-0Ho1UpX5tT-22">
          <mxGeometry x="60" width="100" height="40" as="geometry">
            <mxRectangle width="100" height="40" as="alternateBounds" />
          </mxGeometry>
        </mxCell>
        <mxCell id="B2deVuTes-0Ho1UpX5tT-25" value="category" style="text;html=1;align=center;verticalAlign=middle;resizable=0;points=[];autosize=1;strokeColor=none;fillColor=none;sketch=1;curveFitting=1;jiggle=2;" vertex="1" parent="1">
          <mxGeometry x="80" y="210" width="70" height="30" as="geometry" />
        </mxCell>
        <mxCell id="B2deVuTes-0Ho1UpX5tT-26" value="" style="childLayout=tableLayout;recursiveResize=0;shadow=0;fillColor=none;strokeColor=#C0C0C0;perimeterSpacing=0;strokeWidth=1;" vertex="1" parent="1">
          <mxGeometry x="80" y="480" width="280" height="40" as="geometry" />
        </mxCell>
        <mxCell id="B2deVuTes-0Ho1UpX5tT-27" value="" style="shape=tableRow;horizontal=0;startSize=0;swimlaneHead=0;swimlaneBody=0;top=0;left=0;bottom=0;right=0;dropTarget=0;collapsible=0;recursiveResize=0;expand=0;fontStyle=0;fillColor=none;sketch=1;curveFitting=1;jiggle=2;" vertex="1" parent="B2deVuTes-0Ho1UpX5tT-26">
          <mxGeometry width="280" height="40" as="geometry" />
        </mxCell>
        <mxCell id="B2deVuTes-0Ho1UpX5tT-28" value="&lt;u&gt;id&lt;/u&gt;" style="connectable=0;recursiveResize=0;strokeColor=default;fillColor=none;align=center;whiteSpace=wrap;html=1;" vertex="1" parent="B2deVuTes-0Ho1UpX5tT-27">
          <mxGeometry width="60" height="40" as="geometry">
            <mxRectangle width="60" height="40" as="alternateBounds" />
          </mxGeometry>
        </mxCell>
        <mxCell id="B2deVuTes-0Ho1UpX5tT-29" value="total_billing" style="connectable=0;recursiveResize=0;strokeColor=default;fillColor=none;align=center;whiteSpace=wrap;html=1;" vertex="1" parent="B2deVuTes-0Ho1UpX5tT-27">
          <mxGeometry x="60" width="80" height="40" as="geometry">
            <mxRectangle width="80" height="40" as="alternateBounds" />
          </mxGeometry>
        </mxCell>
        <mxCell id="B2deVuTes-0Ho1UpX5tT-30" value="total_paid" style="connectable=0;recursiveResize=0;strokeColor=default;fillColor=none;align=center;whiteSpace=wrap;html=1;" vertex="1" parent="B2deVuTes-0Ho1UpX5tT-27">
          <mxGeometry x="140" width="78" height="40" as="geometry">
            <mxRectangle width="78" height="40" as="alternateBounds" />
          </mxGeometry>
        </mxCell>
        <mxCell id="B2deVuTes-0Ho1UpX5tT-31" value="change" style="connectable=0;recursiveResize=0;strokeColor=default;fillColor=none;align=center;whiteSpace=wrap;html=1;" vertex="1" parent="B2deVuTes-0Ho1UpX5tT-27">
          <mxGeometry x="218" width="62" height="40" as="geometry">
            <mxRectangle width="62" height="40" as="alternateBounds" />
          </mxGeometry>
        </mxCell>
        <mxCell id="B2deVuTes-0Ho1UpX5tT-32" value="receipt" style="text;html=1;align=center;verticalAlign=middle;resizable=0;points=[];autosize=1;strokeColor=none;fillColor=none;sketch=1;curveFitting=1;jiggle=2;" vertex="1" parent="1">
          <mxGeometry x="80" y="450" width="60" height="30" as="geometry" />
        </mxCell>
        <mxCell id="B2deVuTes-0Ho1UpX5tT-33" style="edgeStyle=orthogonalEdgeStyle;rounded=0;orthogonalLoop=1;jettySize=auto;html=1;entryX=0.181;entryY=1.05;entryDx=0;entryDy=0;entryPerimeter=0;exitX=0.207;exitY=1.05;exitDx=0;exitDy=0;exitPerimeter=0;" edge="1" parent="1" source="B2deVuTes-0Ho1UpX5tT-2" target="B2deVuTes-0Ho1UpX5tT-22">
          <mxGeometry relative="1" as="geometry">
            <mxPoint x="250" y="150" as="sourcePoint" />
            <Array as="points">
              <mxPoint x="165" y="200" />
              <mxPoint x="60" y="200" />
              <mxPoint x="60" y="310" />
              <mxPoint x="109" y="310" />
            </Array>
          </mxGeometry>
        </mxCell>
        <mxCell id="B2deVuTes-0Ho1UpX5tT-34" style="edgeStyle=orthogonalEdgeStyle;rounded=0;orthogonalLoop=1;jettySize=auto;html=1;exitX=0.41;exitY=0.975;exitDx=0;exitDy=0;exitPerimeter=0;entryX=0.188;entryY=0.975;entryDx=0;entryDy=0;entryPerimeter=0;" edge="1" parent="1" source="B2deVuTes-0Ho1UpX5tT-2" target="B2deVuTes-0Ho1UpX5tT-11">
          <mxGeometry relative="1" as="geometry">
            <Array as="points">
              <mxPoint x="248" y="300" />
              <mxPoint x="350" y="300" />
            </Array>
          </mxGeometry>
        </mxCell>
        <mxCell id="B2deVuTes-0Ho1UpX5tT-35" style="edgeStyle=orthogonalEdgeStyle;rounded=0;orthogonalLoop=1;jettySize=auto;html=1;entryX=0.068;entryY=1;entryDx=0;entryDy=0;entryPerimeter=0;exitX=0.157;exitY=1.05;exitDx=0;exitDy=0;exitPerimeter=0;" edge="1" parent="1" source="B2deVuTes-0Ho1UpX5tT-16" target="B2deVuTes-0Ho1UpX5tT-2">
          <mxGeometry relative="1" as="geometry">
            <mxPoint x="120" y="170" as="targetPoint" />
            <Array as="points">
              <mxPoint x="113" y="410" />
              <mxPoint x="50" y="410" />
              <mxPoint x="50" y="190" />
              <mxPoint x="108" y="190" />
            </Array>
          </mxGeometry>
        </mxCell>
        <mxCell id="B2deVuTes-0Ho1UpX5tT-36" style="edgeStyle=orthogonalEdgeStyle;rounded=0;orthogonalLoop=1;jettySize=auto;html=1;entryX=0.114;entryY=1.125;entryDx=0;entryDy=0;entryPerimeter=0;exitX=0.543;exitY=0.95;exitDx=0;exitDy=0;exitPerimeter=0;" edge="1" parent="1" source="B2deVuTes-0Ho1UpX5tT-16" target="B2deVuTes-0Ho1UpX5tT-27">
          <mxGeometry relative="1" as="geometry">
            <Array as="points">
              <mxPoint x="194" y="420" />
              <mxPoint x="50" y="420" />
              <mxPoint x="50" y="540" />
              <mxPoint x="112" y="540" />
            </Array>
          </mxGeometry>
        </mxCell>
        <mxCell id="B2deVuTes-0Ho1UpX5tT-37" value="" style="childLayout=tableLayout;recursiveResize=0;shadow=0;fillColor=none;strokeColor=#C0C0C0;perimeterSpacing=0;strokeWidth=1;" vertex="1" parent="1">
          <mxGeometry x="80" y="600" width="320" height="40" as="geometry" />
        </mxCell>
        <mxCell id="B2deVuTes-0Ho1UpX5tT-38" value="" style="shape=tableRow;horizontal=0;startSize=0;swimlaneHead=0;swimlaneBody=0;top=0;left=0;bottom=0;right=0;dropTarget=0;collapsible=0;recursiveResize=0;expand=0;fontStyle=0;fillColor=none;sketch=1;curveFitting=1;jiggle=2;" vertex="1" parent="B2deVuTes-0Ho1UpX5tT-37">
          <mxGeometry width="320" height="40" as="geometry" />
        </mxCell>
        <mxCell id="B2deVuTes-0Ho1UpX5tT-39" value="&lt;u&gt;title&lt;/u&gt;" style="connectable=0;recursiveResize=0;strokeColor=default;fillColor=none;align=center;whiteSpace=wrap;html=1;" vertex="1" parent="B2deVuTes-0Ho1UpX5tT-38">
          <mxGeometry width="50" height="40" as="geometry">
            <mxRectangle width="50" height="40" as="alternateBounds" />
          </mxGeometry>
        </mxCell>
        <mxCell id="B2deVuTes-0Ho1UpX5tT-40" value="item_id" style="connectable=0;recursiveResize=0;strokeColor=default;fillColor=none;align=center;whiteSpace=wrap;html=1;" vertex="1" parent="B2deVuTes-0Ho1UpX5tT-38">
          <mxGeometry x="50" width="80" height="40" as="geometry">
            <mxRectangle width="80" height="40" as="alternateBounds" />
          </mxGeometry>
        </mxCell>
        <mxCell id="B2deVuTes-0Ho1UpX5tT-41" value="genre_id" style="connectable=0;recursiveResize=0;strokeColor=default;fillColor=none;align=center;whiteSpace=wrap;html=1;" vertex="1" parent="B2deVuTes-0Ho1UpX5tT-38">
          <mxGeometry x="130" width="70" height="40" as="geometry">
            <mxRectangle width="70" height="40" as="alternateBounds" />
          </mxGeometry>
        </mxCell>
        <mxCell id="B2deVuTes-0Ho1UpX5tT-42" value="ISBN" style="connectable=0;recursiveResize=0;strokeColor=default;fillColor=none;align=center;whiteSpace=wrap;html=1;" vertex="1" parent="B2deVuTes-0Ho1UpX5tT-38">
          <mxGeometry x="200" width="60" height="40" as="geometry">
            <mxRectangle width="60" height="40" as="alternateBounds" />
          </mxGeometry>
        </mxCell>
        <mxCell id="B2deVuTes-0Ho1UpX5tT-43" value="author" style="connectable=0;recursiveResize=0;strokeColor=default;fillColor=none;align=center;whiteSpace=wrap;html=1;" vertex="1" parent="B2deVuTes-0Ho1UpX5tT-38">
          <mxGeometry x="260" width="60" height="40" as="geometry">
            <mxRectangle width="60" height="40" as="alternateBounds" />
          </mxGeometry>
        </mxCell>
        <mxCell id="B2deVuTes-0Ho1UpX5tT-44" value="book_catalouge" style="text;html=1;align=center;verticalAlign=middle;resizable=0;points=[];autosize=1;strokeColor=none;fillColor=none;sketch=1;curveFitting=1;jiggle=2;" vertex="1" parent="1">
          <mxGeometry x="80" y="570" width="110" height="30" as="geometry" />
        </mxCell>
        <mxCell id="B2deVuTes-0Ho1UpX5tT-45" value="" style="childLayout=tableLayout;recursiveResize=0;shadow=0;fillColor=none;strokeColor=default;perimeterSpacing=0;strokeWidth=1;" vertex="1" parent="1">
          <mxGeometry x="80" y="720" width="160" height="40" as="geometry" />
        </mxCell>
        <mxCell id="B2deVuTes-0Ho1UpX5tT-46" value="" style="shape=tableRow;horizontal=0;startSize=0;swimlaneHead=0;swimlaneBody=0;top=0;left=0;bottom=0;right=0;dropTarget=0;collapsible=0;recursiveResize=0;expand=0;fontStyle=0;fillColor=none;sketch=1;curveFitting=1;jiggle=2;" vertex="1" parent="B2deVuTes-0Ho1UpX5tT-45">
          <mxGeometry width="160" height="40" as="geometry" />
        </mxCell>
        <mxCell id="B2deVuTes-0Ho1UpX5tT-47" value="id" style="connectable=0;recursiveResize=0;strokeColor=default;fillColor=none;align=center;whiteSpace=wrap;html=1;fontStyle=4" vertex="1" parent="B2deVuTes-0Ho1UpX5tT-46">
          <mxGeometry width="60" height="40" as="geometry">
            <mxRectangle width="60" height="40" as="alternateBounds" />
          </mxGeometry>
        </mxCell>
        <mxCell id="B2deVuTes-0Ho1UpX5tT-48" value="genre_name" style="connectable=0;recursiveResize=0;strokeColor=default;fillColor=none;align=center;whiteSpace=wrap;html=1;" vertex="1" parent="B2deVuTes-0Ho1UpX5tT-46">
          <mxGeometry x="60" width="100" height="40" as="geometry">
            <mxRectangle width="100" height="40" as="alternateBounds" />
          </mxGeometry>
        </mxCell>
        <mxCell id="B2deVuTes-0Ho1UpX5tT-49" value="genre" style="text;html=1;align=center;verticalAlign=middle;resizable=0;points=[];autosize=1;strokeColor=none;fillColor=none;sketch=1;curveFitting=1;jiggle=2;" vertex="1" parent="1">
          <mxGeometry x="80" y="690" width="50" height="30" as="geometry" />
        </mxCell>
        <mxCell id="B2deVuTes-0Ho1UpX5tT-50" value="" style="edgeStyle=orthogonalEdgeStyle;rounded=0;orthogonalLoop=1;jettySize=auto;html=1;entryX=0.181;entryY=0.975;entryDx=0;entryDy=0;entryPerimeter=0;exitX=0.525;exitY=1.025;exitDx=0;exitDy=0;exitPerimeter=0;" edge="1" parent="1" source="B2deVuTes-0Ho1UpX5tT-38" target="B2deVuTes-0Ho1UpX5tT-46">
          <mxGeometry relative="1" as="geometry">
            <mxPoint x="280" y="800" as="sourcePoint" />
            <Array as="points">
              <mxPoint x="248" y="770" />
              <mxPoint x="109" y="770" />
            </Array>
          </mxGeometry>
        </mxCell>
        <mxCell id="B2deVuTes-0Ho1UpX5tT-51" style="edgeStyle=orthogonalEdgeStyle;rounded=0;orthogonalLoop=1;jettySize=auto;html=1;entryX=0.044;entryY=1.025;entryDx=0;entryDy=0;entryPerimeter=0;exitX=0.278;exitY=1;exitDx=0;exitDy=0;exitPerimeter=0;" edge="1" parent="1" source="B2deVuTes-0Ho1UpX5tT-38" target="B2deVuTes-0Ho1UpX5tT-2">
          <mxGeometry relative="1" as="geometry">
            <Array as="points">
              <mxPoint x="169" y="650" />
              <mxPoint x="40" y="650" />
              <mxPoint x="40" y="180" />
              <mxPoint x="98" y="180" />
            </Array>
          </mxGeometry>
        </mxCell>
        <mxCell id="B2deVuTes-0Ho1UpX5tT-52" value="" style="childLayout=tableLayout;recursiveResize=0;shadow=0;fillColor=none;strokeColor=#C0C0C0;perimeterSpacing=0;strokeWidth=1;" vertex="1" parent="1">
          <mxGeometry x="80" y="880" width="410" height="40" as="geometry" />
        </mxCell>
        <mxCell id="B2deVuTes-0Ho1UpX5tT-53" value="" style="shape=tableRow;horizontal=0;startSize=0;swimlaneHead=0;swimlaneBody=0;top=0;left=0;bottom=0;right=0;dropTarget=0;collapsible=0;recursiveResize=0;expand=0;fontStyle=0;fillColor=none;sketch=1;curveFitting=1;jiggle=2;" vertex="1" parent="B2deVuTes-0Ho1UpX5tT-52">
          <mxGeometry width="410" height="40" as="geometry" />
        </mxCell>
        <mxCell id="B2deVuTes-0Ho1UpX5tT-54" value="&lt;u&gt;ssn&lt;/u&gt;" style="connectable=0;recursiveResize=0;strokeColor=default;fillColor=none;align=center;whiteSpace=wrap;html=1;" vertex="1" parent="B2deVuTes-0Ho1UpX5tT-53">
          <mxGeometry width="50" height="40" as="geometry">
            <mxRectangle width="50" height="40" as="alternateBounds" />
          </mxGeometry>
        </mxCell>
        <mxCell id="B2deVuTes-0Ho1UpX5tT-55" value="address" style="connectable=0;recursiveResize=0;strokeColor=default;fillColor=none;align=center;whiteSpace=wrap;html=1;" vertex="1" parent="B2deVuTes-0Ho1UpX5tT-53">
          <mxGeometry x="50" width="80" height="40" as="geometry">
            <mxRectangle width="80" height="40" as="alternateBounds" />
          </mxGeometry>
        </mxCell>
        <mxCell id="B2deVuTes-0Ho1UpX5tT-56" value="salary" style="connectable=0;recursiveResize=0;strokeColor=default;fillColor=none;align=center;whiteSpace=wrap;html=1;" vertex="1" parent="B2deVuTes-0Ho1UpX5tT-53">
          <mxGeometry x="130" width="70" height="40" as="geometry">
            <mxRectangle width="70" height="40" as="alternateBounds" />
          </mxGeometry>
        </mxCell>
        <mxCell id="B2deVuTes-0Ho1UpX5tT-57" value="name" style="connectable=0;recursiveResize=0;strokeColor=default;fillColor=none;align=center;whiteSpace=wrap;html=1;" vertex="1" parent="B2deVuTes-0Ho1UpX5tT-53">
          <mxGeometry x="200" width="60" height="40" as="geometry">
            <mxRectangle width="60" height="40" as="alternateBounds" />
          </mxGeometry>
        </mxCell>
        <mxCell id="B2deVuTes-0Ho1UpX5tT-58" value="sex" style="connectable=0;recursiveResize=0;strokeColor=default;fillColor=none;align=center;whiteSpace=wrap;html=1;" vertex="1" parent="B2deVuTes-0Ho1UpX5tT-53">
          <mxGeometry x="260" width="60" height="40" as="geometry">
            <mxRectangle width="60" height="40" as="alternateBounds" />
          </mxGeometry>
        </mxCell>
        <mxCell id="B2deVuTes-0Ho1UpX5tT-59" value="b_date" style="connectable=0;recursiveResize=0;strokeColor=default;fillColor=none;align=center;whiteSpace=wrap;html=1;" vertex="1" parent="B2deVuTes-0Ho1UpX5tT-53">
          <mxGeometry x="320" width="90" height="40" as="geometry">
            <mxRectangle width="90" height="40" as="alternateBounds" />
          </mxGeometry>
        </mxCell>
        <mxCell id="B2deVuTes-0Ho1UpX5tT-60" value="employee" style="text;html=1;align=center;verticalAlign=middle;resizable=0;points=[];autosize=1;strokeColor=none;fillColor=none;sketch=1;curveFitting=1;jiggle=2;" vertex="1" parent="1">
          <mxGeometry x="80" y="850" width="70" height="30" as="geometry" />
        </mxCell>
        <mxCell id="B2deVuTes-0Ho1UpX5tT-61" value="" style="childLayout=tableLayout;recursiveResize=0;shadow=0;fillColor=none;strokeColor=#C0C0C0;perimeterSpacing=0;strokeWidth=1;" vertex="1" parent="1">
          <mxGeometry x="145" y="1000" width="280" height="40" as="geometry" />
        </mxCell>
        <mxCell id="B2deVuTes-0Ho1UpX5tT-62" value="" style="shape=tableRow;horizontal=0;startSize=0;swimlaneHead=0;swimlaneBody=0;top=0;left=0;bottom=0;right=0;dropTarget=0;collapsible=0;recursiveResize=0;expand=0;fontStyle=0;fillColor=none;sketch=1;curveFitting=1;jiggle=2;" vertex="1" parent="B2deVuTes-0Ho1UpX5tT-61">
          <mxGeometry width="280" height="40" as="geometry" />
        </mxCell>
        <mxCell id="B2deVuTes-0Ho1UpX5tT-63" value="&lt;u&gt;name&lt;/u&gt;" style="connectable=0;recursiveResize=0;strokeColor=default;fillColor=none;align=center;whiteSpace=wrap;html=1;" vertex="1" parent="B2deVuTes-0Ho1UpX5tT-62">
          <mxGeometry width="60" height="40" as="geometry">
            <mxRectangle width="60" height="40" as="alternateBounds" />
          </mxGeometry>
        </mxCell>
        <mxCell id="B2deVuTes-0Ho1UpX5tT-64" value="location" style="connectable=0;recursiveResize=0;strokeColor=default;fillColor=none;align=center;whiteSpace=wrap;html=1;" vertex="1" parent="B2deVuTes-0Ho1UpX5tT-62">
          <mxGeometry x="60" width="80" height="40" as="geometry">
            <mxRectangle width="80" height="40" as="alternateBounds" />
          </mxGeometry>
        </mxCell>
        <mxCell id="B2deVuTes-0Ho1UpX5tT-65" value="number_of Employees" style="connectable=0;recursiveResize=0;strokeColor=default;fillColor=none;align=center;whiteSpace=wrap;html=1;" vertex="1" parent="B2deVuTes-0Ho1UpX5tT-62">
          <mxGeometry x="140" width="140" height="40" as="geometry">
            <mxRectangle width="140" height="40" as="alternateBounds" />
          </mxGeometry>
        </mxCell>
        <mxCell id="B2deVuTes-0Ho1UpX5tT-66" value="branch" style="text;html=1;align=center;verticalAlign=middle;resizable=0;points=[];autosize=1;strokeColor=none;fillColor=none;sketch=1;curveFitting=1;jiggle=2;" vertex="1" parent="1">
          <mxGeometry x="85" y="970" width="60" height="30" as="geometry" />
        </mxCell>
        <mxCell id="TuD1NmLUooKr8Tm3V_Tk-2" style="edgeStyle=orthogonalEdgeStyle;rounded=0;orthogonalLoop=1;jettySize=auto;html=1;" edge="1" parent="1" source="B2deVuTes-0Ho1UpX5tT-67">
          <mxGeometry relative="1" as="geometry">
            <mxPoint x="120" y="1040" as="targetPoint" />
            <Array as="points">
              <mxPoint x="220" y="1081" />
              <mxPoint x="121" y="1081" />
            </Array>
          </mxGeometry>
        </mxCell>
        <mxCell id="B2deVuTes-0Ho1UpX5tT-67" value="" style="childLayout=tableLayout;recursiveResize=0;shadow=0;fillColor=none;strokeColor=#C0C0C0;perimeterSpacing=0;strokeWidth=1;" vertex="1" parent="1">
          <mxGeometry x="80" y="1120" width="200" height="40" as="geometry" />
        </mxCell>
        <mxCell id="B2deVuTes-0Ho1UpX5tT-68" value="" style="shape=tableRow;horizontal=0;startSize=0;swimlaneHead=0;swimlaneBody=0;top=0;left=0;bottom=0;right=0;dropTarget=0;collapsible=0;recursiveResize=0;expand=0;fontStyle=0;fillColor=none;sketch=1;curveFitting=1;jiggle=2;" vertex="1" parent="B2deVuTes-0Ho1UpX5tT-67">
          <mxGeometry width="200" height="40" as="geometry" />
        </mxCell>
        <mxCell id="B2deVuTes-0Ho1UpX5tT-69" value="employee_ssn" style="connectable=0;recursiveResize=0;strokeColor=default;fillColor=none;align=center;whiteSpace=wrap;html=1;" vertex="1" parent="B2deVuTes-0Ho1UpX5tT-68">
          <mxGeometry width="83" height="40" as="geometry">
            <mxRectangle width="83" height="40" as="alternateBounds" />
          </mxGeometry>
        </mxCell>
        <mxCell id="B2deVuTes-0Ho1UpX5tT-70" value="branch_id" style="connectable=0;recursiveResize=0;strokeColor=default;fillColor=none;align=center;whiteSpace=wrap;html=1;" vertex="1" parent="B2deVuTes-0Ho1UpX5tT-68">
          <mxGeometry x="83" width="117" height="40" as="geometry">
            <mxRectangle width="117" height="40" as="alternateBounds" />
          </mxGeometry>
        </mxCell>
        <mxCell id="B2deVuTes-0Ho1UpX5tT-71" value="works_for" style="text;html=1;align=center;verticalAlign=middle;resizable=0;points=[];autosize=1;strokeColor=none;fillColor=none;sketch=1;curveFitting=1;jiggle=2;" vertex="1" parent="1">
          <mxGeometry x="80" y="1090" width="70" height="30" as="geometry" />
        </mxCell>
        <mxCell id="B2deVuTes-0Ho1UpX5tT-72" value="manages" style="text;html=1;align=center;verticalAlign=middle;resizable=0;points=[];autosize=1;strokeColor=none;fillColor=none;sketch=1;curveFitting=1;jiggle=2;" vertex="1" parent="1">
          <mxGeometry x="80" y="1210" width="70" height="30" as="geometry" />
        </mxCell>
        <mxCell id="B2deVuTes-0Ho1UpX5tT-73" value="" style="childLayout=tableLayout;recursiveResize=0;shadow=0;fillColor=none;strokeColor=#C0C0C0;perimeterSpacing=0;strokeWidth=1;movable=1;resizable=1;rotatable=1;deletable=1;editable=1;locked=0;connectable=1;" vertex="1" parent="1">
          <mxGeometry x="80" y="1240" width="250" height="40" as="geometry" />
        </mxCell>
        <mxCell id="B2deVuTes-0Ho1UpX5tT-74" value="" style="shape=tableRow;horizontal=0;startSize=0;swimlaneHead=0;swimlaneBody=0;top=0;left=0;bottom=0;right=0;dropTarget=0;collapsible=0;recursiveResize=0;expand=0;fontStyle=0;fillColor=none;sketch=1;curveFitting=1;jiggle=2;" vertex="1" parent="B2deVuTes-0Ho1UpX5tT-73">
          <mxGeometry width="250" height="40" as="geometry" />
        </mxCell>
        <mxCell id="B2deVuTes-0Ho1UpX5tT-75" value="employee_ssn" style="connectable=0;recursiveResize=0;strokeColor=default;fillColor=none;align=center;whiteSpace=wrap;html=1;" vertex="1" parent="B2deVuTes-0Ho1UpX5tT-74">
          <mxGeometry width="90" height="40" as="geometry">
            <mxRectangle width="90" height="40" as="alternateBounds" />
          </mxGeometry>
        </mxCell>
        <mxCell id="B2deVuTes-0Ho1UpX5tT-76" value="branch_id" style="connectable=0;recursiveResize=0;strokeColor=default;fillColor=none;align=center;whiteSpace=wrap;html=1;" vertex="1" parent="B2deVuTes-0Ho1UpX5tT-74">
          <mxGeometry x="90" width="90" height="40" as="geometry">
            <mxRectangle width="90" height="40" as="alternateBounds" />
          </mxGeometry>
        </mxCell>
        <mxCell id="B2deVuTes-0Ho1UpX5tT-77" value="start_date" style="connectable=0;recursiveResize=0;strokeColor=default;fillColor=none;align=center;whiteSpace=wrap;html=1;" vertex="1" parent="B2deVuTes-0Ho1UpX5tT-74">
          <mxGeometry x="180" width="70" height="40" as="geometry">
            <mxRectangle width="70" height="40" as="alternateBounds" />
          </mxGeometry>
        </mxCell>
        <mxCell id="B2deVuTes-0Ho1UpX5tT-78" style="edgeStyle=orthogonalEdgeStyle;rounded=0;orthogonalLoop=1;jettySize=auto;html=1;exitX=0.25;exitY=1;exitDx=0;exitDy=0;entryX=0.076;entryY=1.05;entryDx=0;entryDy=0;entryPerimeter=0;" edge="1" parent="1" source="B2deVuTes-0Ho1UpX5tT-68" target="B2deVuTes-0Ho1UpX5tT-53">
          <mxGeometry relative="1" as="geometry">
            <mxPoint x="250" y="960" as="targetPoint" />
            <Array as="points">
              <mxPoint x="130" y="1170" />
              <mxPoint x="70" y="1170" />
              <mxPoint x="70" y="960" />
              <mxPoint x="111" y="960" />
            </Array>
          </mxGeometry>
        </mxCell>
        <mxCell id="B2deVuTes-0Ho1UpX5tT-79" style="edgeStyle=orthogonalEdgeStyle;rounded=0;orthogonalLoop=1;jettySize=auto;html=1;exitX=0.25;exitY=1;exitDx=0;exitDy=0;entryX=0.046;entryY=1.025;entryDx=0;entryDy=0;entryPerimeter=0;" edge="1" parent="1" source="B2deVuTes-0Ho1UpX5tT-74" target="B2deVuTes-0Ho1UpX5tT-53">
          <mxGeometry relative="1" as="geometry">
            <mxPoint x="50" y="950" as="targetPoint" />
            <Array as="points">
              <mxPoint x="143" y="1290" />
              <mxPoint x="60" y="1290" />
              <mxPoint x="60" y="950" />
              <mxPoint x="99" y="950" />
            </Array>
          </mxGeometry>
        </mxCell>
        <mxCell id="TuD1NmLUooKr8Tm3V_Tk-1" value="&lt;u&gt;Id&lt;/u&gt;" style="connectable=0;recursiveResize=0;strokeColor=default;fillColor=none;align=center;whiteSpace=wrap;html=1;" vertex="1" parent="1">
          <mxGeometry x="85" y="1000" width="60" height="40" as="geometry">
            <mxRectangle width="100" height="40" as="alternateBounds" />
          </mxGeometry>
        </mxCell>
        <mxCell id="TuD1NmLUooKr8Tm3V_Tk-5" value="" style="endArrow=classic;html=1;rounded=0;exitX=0.5;exitY=0;exitDx=0;exitDy=0;" edge="1" parent="1" source="B2deVuTes-0Ho1UpX5tT-74">
          <mxGeometry width="50" height="50" relative="1" as="geometry">
            <mxPoint x="200" y="1230" as="sourcePoint" />
            <mxPoint x="130" y="1040" as="targetPoint" />
            <Array as="points">
              <mxPoint x="205" y="1190" />
              <mxPoint x="420" y="1190" />
              <mxPoint x="420" y="1080" />
              <mxPoint x="280" y="1080" />
              <mxPoint x="130" y="1080" />
            </Array>
          </mxGeometry>
        </mxCell>
      </root>
    </mxGraphModel>
  </diagram>
  <diagram id="I_Besz0ITszPKbdP6kta" name="Page-3">
    <mxGraphModel dx="1308" dy="1308" grid="1" gridSize="10" guides="1" tooltips="1" connect="1" arrows="1" fold="1" page="1" pageScale="1" pageWidth="850" pageHeight="1100" math="0" shadow="0">
      <root>
        <mxCell id="0" />
        <mxCell id="1" parent="0" />
        <mxCell id="2sS52Kku7xfb4uqSj1Oq-1" value="Item" style="shape=table;startSize=30;container=1;collapsible=1;childLayout=tableLayout;fixedRows=1;rowLines=0;fontStyle=1;align=center;resizeLast=1;html=1;" vertex="1" parent="1">
          <mxGeometry x="150" y="320" width="180" height="240" as="geometry" />
        </mxCell>
        <mxCell id="2sS52Kku7xfb4uqSj1Oq-2" value="" style="shape=tableRow;horizontal=0;startSize=0;swimlaneHead=0;swimlaneBody=0;fillColor=none;collapsible=0;dropTarget=0;points=[[0,0.5],[1,0.5]];portConstraint=eastwest;top=0;left=0;right=0;bottom=1;" vertex="1" parent="2sS52Kku7xfb4uqSj1Oq-1">
          <mxGeometry y="30" width="180" height="30" as="geometry" />
        </mxCell>
        <mxCell id="2sS52Kku7xfb4uqSj1Oq-3" value="PK" style="shape=partialRectangle;connectable=0;fillColor=none;top=0;left=0;bottom=0;right=0;fontStyle=1;overflow=hidden;whiteSpace=wrap;html=1;" vertex="1" parent="2sS52Kku7xfb4uqSj1Oq-2">
          <mxGeometry width="30" height="30" as="geometry">
            <mxRectangle width="30" height="30" as="alternateBounds" />
          </mxGeometry>
        </mxCell>
        <mxCell id="2sS52Kku7xfb4uqSj1Oq-4" value="ID" style="shape=partialRectangle;connectable=0;fillColor=none;top=0;left=0;bottom=0;right=0;align=left;spacingLeft=6;fontStyle=5;overflow=hidden;whiteSpace=wrap;html=1;" vertex="1" parent="2sS52Kku7xfb4uqSj1Oq-2">
          <mxGeometry x="30" width="150" height="30" as="geometry">
            <mxRectangle width="150" height="30" as="alternateBounds" />
          </mxGeometry>
        </mxCell>
        <mxCell id="2sS52Kku7xfb4uqSj1Oq-8" value="" style="shape=tableRow;horizontal=0;startSize=0;swimlaneHead=0;swimlaneBody=0;fillColor=none;collapsible=0;dropTarget=0;points=[[0,0.5],[1,0.5]];portConstraint=eastwest;top=0;left=0;right=0;bottom=0;" vertex="1" parent="2sS52Kku7xfb4uqSj1Oq-1">
          <mxGeometry y="60" width="180" height="30" as="geometry" />
        </mxCell>
        <mxCell id="2sS52Kku7xfb4uqSj1Oq-9" value="" style="shape=partialRectangle;connectable=0;fillColor=none;top=0;left=0;bottom=0;right=0;editable=1;overflow=hidden;whiteSpace=wrap;html=1;" vertex="1" parent="2sS52Kku7xfb4uqSj1Oq-8">
          <mxGeometry width="30" height="30" as="geometry">
            <mxRectangle width="30" height="30" as="alternateBounds" />
          </mxGeometry>
        </mxCell>
        <mxCell id="2sS52Kku7xfb4uqSj1Oq-10" value="name_item" style="shape=partialRectangle;connectable=0;fillColor=none;top=0;left=0;bottom=0;right=0;align=left;spacingLeft=6;overflow=hidden;whiteSpace=wrap;html=1;" vertex="1" parent="2sS52Kku7xfb4uqSj1Oq-8">
          <mxGeometry x="30" width="150" height="30" as="geometry">
            <mxRectangle width="150" height="30" as="alternateBounds" />
          </mxGeometry>
        </mxCell>
        <mxCell id="2sS52Kku7xfb4uqSj1Oq-5" value="" style="shape=tableRow;horizontal=0;startSize=0;swimlaneHead=0;swimlaneBody=0;fillColor=none;collapsible=0;dropTarget=0;points=[[0,0.5],[1,0.5]];portConstraint=eastwest;top=0;left=0;right=0;bottom=0;" vertex="1" parent="2sS52Kku7xfb4uqSj1Oq-1">
          <mxGeometry y="90" width="180" height="30" as="geometry" />
        </mxCell>
        <mxCell id="2sS52Kku7xfb4uqSj1Oq-6" value="" style="shape=partialRectangle;connectable=0;fillColor=none;top=0;left=0;bottom=0;right=0;editable=1;overflow=hidden;whiteSpace=wrap;html=1;" vertex="1" parent="2sS52Kku7xfb4uqSj1Oq-5">
          <mxGeometry width="30" height="30" as="geometry">
            <mxRectangle width="30" height="30" as="alternateBounds" />
          </mxGeometry>
        </mxCell>
        <mxCell id="2sS52Kku7xfb4uqSj1Oq-7" value="price" style="shape=partialRectangle;connectable=0;fillColor=none;top=0;left=0;bottom=0;right=0;align=left;spacingLeft=6;overflow=hidden;whiteSpace=wrap;html=1;" vertex="1" parent="2sS52Kku7xfb4uqSj1Oq-5">
          <mxGeometry x="30" width="150" height="30" as="geometry">
            <mxRectangle width="150" height="30" as="alternateBounds" />
          </mxGeometry>
        </mxCell>
        <mxCell id="2sS52Kku7xfb4uqSj1Oq-11" value="" style="shape=tableRow;horizontal=0;startSize=0;swimlaneHead=0;swimlaneBody=0;fillColor=none;collapsible=0;dropTarget=0;points=[[0,0.5],[1,0.5]];portConstraint=eastwest;top=0;left=0;right=0;bottom=0;" vertex="1" parent="2sS52Kku7xfb4uqSj1Oq-1">
          <mxGeometry y="120" width="180" height="30" as="geometry" />
        </mxCell>
        <mxCell id="2sS52Kku7xfb4uqSj1Oq-12" value="" style="shape=partialRectangle;connectable=0;fillColor=none;top=0;left=0;bottom=0;right=0;editable=1;overflow=hidden;whiteSpace=wrap;html=1;" vertex="1" parent="2sS52Kku7xfb4uqSj1Oq-11">
          <mxGeometry width="30" height="30" as="geometry">
            <mxRectangle width="30" height="30" as="alternateBounds" />
          </mxGeometry>
        </mxCell>
        <mxCell id="2sS52Kku7xfb4uqSj1Oq-13" value="in_stock_qty" style="shape=partialRectangle;connectable=0;fillColor=none;top=0;left=0;bottom=0;right=0;align=left;spacingLeft=6;overflow=hidden;whiteSpace=wrap;html=1;" vertex="1" parent="2sS52Kku7xfb4uqSj1Oq-11">
          <mxGeometry x="30" width="150" height="30" as="geometry">
            <mxRectangle width="150" height="30" as="alternateBounds" />
          </mxGeometry>
        </mxCell>
        <mxCell id="2sS52Kku7xfb4uqSj1Oq-28" value="" style="shape=tableRow;horizontal=0;startSize=0;swimlaneHead=0;swimlaneBody=0;fillColor=none;collapsible=0;dropTarget=0;points=[[0,0.5],[1,0.5]];portConstraint=eastwest;top=0;left=0;right=0;bottom=0;" vertex="1" parent="2sS52Kku7xfb4uqSj1Oq-1">
          <mxGeometry y="150" width="180" height="30" as="geometry" />
        </mxCell>
        <mxCell id="2sS52Kku7xfb4uqSj1Oq-29" value="&lt;b&gt;FK&lt;/b&gt;" style="shape=partialRectangle;connectable=0;fillColor=none;top=0;left=0;bottom=0;right=0;editable=1;overflow=hidden;whiteSpace=wrap;html=1;" vertex="1" parent="2sS52Kku7xfb4uqSj1Oq-28">
          <mxGeometry width="30" height="30" as="geometry">
            <mxRectangle width="30" height="30" as="alternateBounds" />
          </mxGeometry>
        </mxCell>
        <mxCell id="2sS52Kku7xfb4uqSj1Oq-30" value="&lt;b&gt;category_id&lt;/b&gt;" style="shape=partialRectangle;connectable=0;fillColor=none;top=0;left=0;bottom=0;right=0;align=left;spacingLeft=6;overflow=hidden;whiteSpace=wrap;html=1;" vertex="1" parent="2sS52Kku7xfb4uqSj1Oq-28">
          <mxGeometry x="30" width="150" height="30" as="geometry">
            <mxRectangle width="150" height="30" as="alternateBounds" />
          </mxGeometry>
        </mxCell>
        <mxCell id="2sS52Kku7xfb4uqSj1Oq-47" value="" style="shape=tableRow;horizontal=0;startSize=0;swimlaneHead=0;swimlaneBody=0;fillColor=none;collapsible=0;dropTarget=0;points=[[0,0.5],[1,0.5]];portConstraint=eastwest;top=0;left=0;right=0;bottom=0;" vertex="1" parent="2sS52Kku7xfb4uqSj1Oq-1">
          <mxGeometry y="180" width="180" height="30" as="geometry" />
        </mxCell>
        <mxCell id="2sS52Kku7xfb4uqSj1Oq-48" value="&lt;b&gt;FK&lt;/b&gt;" style="shape=partialRectangle;connectable=0;fillColor=none;top=0;left=0;bottom=0;right=0;editable=1;overflow=hidden;whiteSpace=wrap;html=1;" vertex="1" parent="2sS52Kku7xfb4uqSj1Oq-47">
          <mxGeometry width="30" height="30" as="geometry">
            <mxRectangle width="30" height="30" as="alternateBounds" />
          </mxGeometry>
        </mxCell>
        <mxCell id="2sS52Kku7xfb4uqSj1Oq-49" value="&lt;b&gt;supplier_id&lt;/b&gt;" style="shape=partialRectangle;connectable=0;fillColor=none;top=0;left=0;bottom=0;right=0;align=left;spacingLeft=6;overflow=hidden;whiteSpace=wrap;html=1;" vertex="1" parent="2sS52Kku7xfb4uqSj1Oq-47">
          <mxGeometry x="30" width="150" height="30" as="geometry">
            <mxRectangle width="150" height="30" as="alternateBounds" />
          </mxGeometry>
        </mxCell>
        <mxCell id="2sS52Kku7xfb4uqSj1Oq-50" value="" style="shape=tableRow;horizontal=0;startSize=0;swimlaneHead=0;swimlaneBody=0;fillColor=none;collapsible=0;dropTarget=0;points=[[0,0.5],[1,0.5]];portConstraint=eastwest;top=0;left=0;right=0;bottom=0;" vertex="1" parent="2sS52Kku7xfb4uqSj1Oq-1">
          <mxGeometry y="210" width="180" height="30" as="geometry" />
        </mxCell>
        <mxCell id="2sS52Kku7xfb4uqSj1Oq-51" value="&lt;b&gt;FK&lt;/b&gt;" style="shape=partialRectangle;connectable=0;fillColor=none;top=0;left=0;bottom=0;right=0;editable=1;overflow=hidden;whiteSpace=wrap;html=1;" vertex="1" parent="2sS52Kku7xfb4uqSj1Oq-50">
          <mxGeometry width="30" height="30" as="geometry">
            <mxRectangle width="30" height="30" as="alternateBounds" />
          </mxGeometry>
        </mxCell>
        <mxCell id="2sS52Kku7xfb4uqSj1Oq-52" value="&lt;b&gt;warehouse_id&lt;/b&gt;" style="shape=partialRectangle;connectable=0;fillColor=none;top=0;left=0;bottom=0;right=0;align=left;spacingLeft=6;overflow=hidden;whiteSpace=wrap;html=1;" vertex="1" parent="2sS52Kku7xfb4uqSj1Oq-50">
          <mxGeometry x="30" width="150" height="30" as="geometry">
            <mxRectangle width="150" height="30" as="alternateBounds" />
          </mxGeometry>
        </mxCell>
        <mxCell id="2sS52Kku7xfb4uqSj1Oq-14" value="Supplier" style="shape=table;startSize=30;container=1;collapsible=1;childLayout=tableLayout;fixedRows=1;rowLines=0;fontStyle=1;align=center;resizeLast=1;html=1;" vertex="1" parent="1">
          <mxGeometry x="150" y="60" width="180" height="90" as="geometry" />
        </mxCell>
        <mxCell id="2sS52Kku7xfb4uqSj1Oq-15" value="" style="shape=tableRow;horizontal=0;startSize=0;swimlaneHead=0;swimlaneBody=0;fillColor=none;collapsible=0;dropTarget=0;points=[[0,0.5],[1,0.5]];portConstraint=eastwest;top=0;left=0;right=0;bottom=1;" vertex="1" parent="2sS52Kku7xfb4uqSj1Oq-14">
          <mxGeometry y="30" width="180" height="30" as="geometry" />
        </mxCell>
        <mxCell id="2sS52Kku7xfb4uqSj1Oq-16" value="PK" style="shape=partialRectangle;connectable=0;fillColor=none;top=0;left=0;bottom=0;right=0;fontStyle=1;overflow=hidden;whiteSpace=wrap;html=1;" vertex="1" parent="2sS52Kku7xfb4uqSj1Oq-15">
          <mxGeometry width="30" height="30" as="geometry">
            <mxRectangle width="30" height="30" as="alternateBounds" />
          </mxGeometry>
        </mxCell>
        <mxCell id="2sS52Kku7xfb4uqSj1Oq-17" value="ID" style="shape=partialRectangle;connectable=0;fillColor=none;top=0;left=0;bottom=0;right=0;align=left;spacingLeft=6;fontStyle=5;overflow=hidden;whiteSpace=wrap;html=1;" vertex="1" parent="2sS52Kku7xfb4uqSj1Oq-15">
          <mxGeometry x="30" width="150" height="30" as="geometry">
            <mxRectangle width="150" height="30" as="alternateBounds" />
          </mxGeometry>
        </mxCell>
        <mxCell id="2sS52Kku7xfb4uqSj1Oq-18" value="" style="shape=tableRow;horizontal=0;startSize=0;swimlaneHead=0;swimlaneBody=0;fillColor=none;collapsible=0;dropTarget=0;points=[[0,0.5],[1,0.5]];portConstraint=eastwest;top=0;left=0;right=0;bottom=0;" vertex="1" parent="2sS52Kku7xfb4uqSj1Oq-14">
          <mxGeometry y="60" width="180" height="30" as="geometry" />
        </mxCell>
        <mxCell id="2sS52Kku7xfb4uqSj1Oq-19" value="" style="shape=partialRectangle;connectable=0;fillColor=none;top=0;left=0;bottom=0;right=0;editable=1;overflow=hidden;whiteSpace=wrap;html=1;" vertex="1" parent="2sS52Kku7xfb4uqSj1Oq-18">
          <mxGeometry width="30" height="30" as="geometry">
            <mxRectangle width="30" height="30" as="alternateBounds" />
          </mxGeometry>
        </mxCell>
        <mxCell id="2sS52Kku7xfb4uqSj1Oq-20" value="supplier_name" style="shape=partialRectangle;connectable=0;fillColor=none;top=0;left=0;bottom=0;right=0;align=left;spacingLeft=6;overflow=hidden;whiteSpace=wrap;html=1;" vertex="1" parent="2sS52Kku7xfb4uqSj1Oq-18">
          <mxGeometry x="30" width="150" height="30" as="geometry">
            <mxRectangle width="150" height="30" as="alternateBounds" />
          </mxGeometry>
        </mxCell>
        <mxCell id="qn6DsTrJp3RPKuTEw1xz-1" style="edgeStyle=orthogonalEdgeStyle;rounded=0;orthogonalLoop=1;jettySize=auto;html=1;entryX=0;entryY=0.5;entryDx=0;entryDy=0;exitX=0;exitY=0.5;exitDx=0;exitDy=0;" edge="1" parent="1" source="2sS52Kku7xfb4uqSj1Oq-47" target="2sS52Kku7xfb4uqSj1Oq-15">
          <mxGeometry relative="1" as="geometry" />
        </mxCell>
        <mxCell id="qn6DsTrJp3RPKuTEw1xz-2" value="category" style="shape=table;startSize=30;container=1;collapsible=1;childLayout=tableLayout;fixedRows=1;rowLines=0;fontStyle=1;align=center;resizeLast=1;html=1;" vertex="1" parent="1">
          <mxGeometry x="140" y="690" width="180" height="90" as="geometry" />
        </mxCell>
        <mxCell id="qn6DsTrJp3RPKuTEw1xz-3" value="" style="shape=tableRow;horizontal=0;startSize=0;swimlaneHead=0;swimlaneBody=0;fillColor=none;collapsible=0;dropTarget=0;points=[[0,0.5],[1,0.5]];portConstraint=eastwest;top=0;left=0;right=0;bottom=1;" vertex="1" parent="qn6DsTrJp3RPKuTEw1xz-2">
          <mxGeometry y="30" width="180" height="30" as="geometry" />
        </mxCell>
        <mxCell id="qn6DsTrJp3RPKuTEw1xz-4" value="PK" style="shape=partialRectangle;connectable=0;fillColor=none;top=0;left=0;bottom=0;right=0;fontStyle=1;overflow=hidden;whiteSpace=wrap;html=1;" vertex="1" parent="qn6DsTrJp3RPKuTEw1xz-3">
          <mxGeometry width="30" height="30" as="geometry">
            <mxRectangle width="30" height="30" as="alternateBounds" />
          </mxGeometry>
        </mxCell>
        <mxCell id="qn6DsTrJp3RPKuTEw1xz-5" value="id" style="shape=partialRectangle;connectable=0;fillColor=none;top=0;left=0;bottom=0;right=0;align=left;spacingLeft=6;fontStyle=5;overflow=hidden;whiteSpace=wrap;html=1;" vertex="1" parent="qn6DsTrJp3RPKuTEw1xz-3">
          <mxGeometry x="30" width="150" height="30" as="geometry">
            <mxRectangle width="150" height="30" as="alternateBounds" />
          </mxGeometry>
        </mxCell>
        <mxCell id="qn6DsTrJp3RPKuTEw1xz-6" value="" style="shape=tableRow;horizontal=0;startSize=0;swimlaneHead=0;swimlaneBody=0;fillColor=none;collapsible=0;dropTarget=0;points=[[0,0.5],[1,0.5]];portConstraint=eastwest;top=0;left=0;right=0;bottom=0;" vertex="1" parent="qn6DsTrJp3RPKuTEw1xz-2">
          <mxGeometry y="60" width="180" height="30" as="geometry" />
        </mxCell>
        <mxCell id="qn6DsTrJp3RPKuTEw1xz-7" value="" style="shape=partialRectangle;connectable=0;fillColor=none;top=0;left=0;bottom=0;right=0;editable=1;overflow=hidden;whiteSpace=wrap;html=1;" vertex="1" parent="qn6DsTrJp3RPKuTEw1xz-6">
          <mxGeometry width="30" height="30" as="geometry">
            <mxRectangle width="30" height="30" as="alternateBounds" />
          </mxGeometry>
        </mxCell>
        <mxCell id="qn6DsTrJp3RPKuTEw1xz-8" value="category_name" style="shape=partialRectangle;connectable=0;fillColor=none;top=0;left=0;bottom=0;right=0;align=left;spacingLeft=6;overflow=hidden;whiteSpace=wrap;html=1;" vertex="1" parent="qn6DsTrJp3RPKuTEw1xz-6">
          <mxGeometry x="30" width="150" height="30" as="geometry">
            <mxRectangle width="150" height="30" as="alternateBounds" />
          </mxGeometry>
        </mxCell>
        <mxCell id="qn6DsTrJp3RPKuTEw1xz-15" style="edgeStyle=orthogonalEdgeStyle;rounded=0;orthogonalLoop=1;jettySize=auto;html=1;entryX=0;entryY=0.5;entryDx=0;entryDy=0;" edge="1" parent="1" source="2sS52Kku7xfb4uqSj1Oq-28" target="qn6DsTrJp3RPKuTEw1xz-3">
          <mxGeometry relative="1" as="geometry" />
        </mxCell>
        <mxCell id="qn6DsTrJp3RPKuTEw1xz-16" value="Warehouse" style="shape=table;startSize=30;container=1;collapsible=1;childLayout=tableLayout;fixedRows=1;rowLines=0;fontStyle=1;align=center;resizeLast=1;html=1;" vertex="1" parent="1">
          <mxGeometry x="950" y="60" width="180" height="120" as="geometry" />
        </mxCell>
        <mxCell id="qn6DsTrJp3RPKuTEw1xz-17" value="" style="shape=tableRow;horizontal=0;startSize=0;swimlaneHead=0;swimlaneBody=0;fillColor=none;collapsible=0;dropTarget=0;points=[[0,0.5],[1,0.5]];portConstraint=eastwest;top=0;left=0;right=0;bottom=1;" vertex="1" parent="qn6DsTrJp3RPKuTEw1xz-16">
          <mxGeometry y="30" width="180" height="30" as="geometry" />
        </mxCell>
        <mxCell id="qn6DsTrJp3RPKuTEw1xz-18" value="PK" style="shape=partialRectangle;connectable=0;fillColor=none;top=0;left=0;bottom=0;right=0;fontStyle=1;overflow=hidden;whiteSpace=wrap;html=1;" vertex="1" parent="qn6DsTrJp3RPKuTEw1xz-17">
          <mxGeometry width="30" height="30" as="geometry">
            <mxRectangle width="30" height="30" as="alternateBounds" />
          </mxGeometry>
        </mxCell>
        <mxCell id="qn6DsTrJp3RPKuTEw1xz-19" value="ID" style="shape=partialRectangle;connectable=0;fillColor=none;top=0;left=0;bottom=0;right=0;align=left;spacingLeft=6;fontStyle=5;overflow=hidden;whiteSpace=wrap;html=1;" vertex="1" parent="qn6DsTrJp3RPKuTEw1xz-17">
          <mxGeometry x="30" width="150" height="30" as="geometry">
            <mxRectangle width="150" height="30" as="alternateBounds" />
          </mxGeometry>
        </mxCell>
        <mxCell id="qn6DsTrJp3RPKuTEw1xz-20" value="" style="shape=tableRow;horizontal=0;startSize=0;swimlaneHead=0;swimlaneBody=0;fillColor=none;collapsible=0;dropTarget=0;points=[[0,0.5],[1,0.5]];portConstraint=eastwest;top=0;left=0;right=0;bottom=0;" vertex="1" parent="qn6DsTrJp3RPKuTEw1xz-16">
          <mxGeometry y="60" width="180" height="30" as="geometry" />
        </mxCell>
        <mxCell id="qn6DsTrJp3RPKuTEw1xz-21" value="" style="shape=partialRectangle;connectable=0;fillColor=none;top=0;left=0;bottom=0;right=0;editable=1;overflow=hidden;whiteSpace=wrap;html=1;" vertex="1" parent="qn6DsTrJp3RPKuTEw1xz-20">
          <mxGeometry width="30" height="30" as="geometry">
            <mxRectangle width="30" height="30" as="alternateBounds" />
          </mxGeometry>
        </mxCell>
        <mxCell id="qn6DsTrJp3RPKuTEw1xz-22" value="warehouse_name" style="shape=partialRectangle;connectable=0;fillColor=none;top=0;left=0;bottom=0;right=0;align=left;spacingLeft=6;overflow=hidden;whiteSpace=wrap;html=1;" vertex="1" parent="qn6DsTrJp3RPKuTEw1xz-20">
          <mxGeometry x="30" width="150" height="30" as="geometry">
            <mxRectangle width="150" height="30" as="alternateBounds" />
          </mxGeometry>
        </mxCell>
        <mxCell id="qn6DsTrJp3RPKuTEw1xz-23" value="" style="shape=tableRow;horizontal=0;startSize=0;swimlaneHead=0;swimlaneBody=0;fillColor=none;collapsible=0;dropTarget=0;points=[[0,0.5],[1,0.5]];portConstraint=eastwest;top=0;left=0;right=0;bottom=0;" vertex="1" parent="qn6DsTrJp3RPKuTEw1xz-16">
          <mxGeometry y="90" width="180" height="30" as="geometry" />
        </mxCell>
        <mxCell id="qn6DsTrJp3RPKuTEw1xz-24" value="" style="shape=partialRectangle;connectable=0;fillColor=none;top=0;left=0;bottom=0;right=0;editable=1;overflow=hidden;whiteSpace=wrap;html=1;" vertex="1" parent="qn6DsTrJp3RPKuTEw1xz-23">
          <mxGeometry width="30" height="30" as="geometry">
            <mxRectangle width="30" height="30" as="alternateBounds" />
          </mxGeometry>
        </mxCell>
        <mxCell id="qn6DsTrJp3RPKuTEw1xz-25" value="location" style="shape=partialRectangle;connectable=0;fillColor=none;top=0;left=0;bottom=0;right=0;align=left;spacingLeft=6;overflow=hidden;whiteSpace=wrap;html=1;" vertex="1" parent="qn6DsTrJp3RPKuTEw1xz-23">
          <mxGeometry x="30" width="150" height="30" as="geometry">
            <mxRectangle width="150" height="30" as="alternateBounds" />
          </mxGeometry>
        </mxCell>
        <mxCell id="qn6DsTrJp3RPKuTEw1xz-37" value="item_receipt" style="shape=table;startSize=30;container=1;collapsible=1;childLayout=tableLayout;fixedRows=1;rowLines=0;fontStyle=1;align=center;resizeLast=1;html=1;whiteSpace=wrap;" vertex="1" parent="1">
          <mxGeometry x="460" y="320" width="180" height="120" as="geometry" />
        </mxCell>
        <mxCell id="qn6DsTrJp3RPKuTEw1xz-38" value="" style="shape=tableRow;horizontal=0;startSize=0;swimlaneHead=0;swimlaneBody=0;fillColor=none;collapsible=0;dropTarget=0;points=[[0,0.5],[1,0.5]];portConstraint=eastwest;top=0;left=0;right=0;bottom=0;html=1;" vertex="1" parent="qn6DsTrJp3RPKuTEw1xz-37">
          <mxGeometry y="30" width="180" height="30" as="geometry" />
        </mxCell>
        <mxCell id="qn6DsTrJp3RPKuTEw1xz-39" value="PK,FK1" style="shape=partialRectangle;connectable=0;fillColor=none;top=0;left=0;bottom=0;right=0;fontStyle=1;overflow=hidden;html=1;whiteSpace=wrap;" vertex="1" parent="qn6DsTrJp3RPKuTEw1xz-38">
          <mxGeometry width="60" height="30" as="geometry">
            <mxRectangle width="60" height="30" as="alternateBounds" />
          </mxGeometry>
        </mxCell>
        <mxCell id="qn6DsTrJp3RPKuTEw1xz-40" value="item_id" style="shape=partialRectangle;connectable=0;fillColor=none;top=0;left=0;bottom=0;right=0;align=left;spacingLeft=6;fontStyle=5;overflow=hidden;html=1;whiteSpace=wrap;" vertex="1" parent="qn6DsTrJp3RPKuTEw1xz-38">
          <mxGeometry x="60" width="120" height="30" as="geometry">
            <mxRectangle width="120" height="30" as="alternateBounds" />
          </mxGeometry>
        </mxCell>
        <mxCell id="qn6DsTrJp3RPKuTEw1xz-41" value="" style="shape=tableRow;horizontal=0;startSize=0;swimlaneHead=0;swimlaneBody=0;fillColor=none;collapsible=0;dropTarget=0;points=[[0,0.5],[1,0.5]];portConstraint=eastwest;top=0;left=0;right=0;bottom=1;html=1;" vertex="1" parent="qn6DsTrJp3RPKuTEw1xz-37">
          <mxGeometry y="60" width="180" height="30" as="geometry" />
        </mxCell>
        <mxCell id="qn6DsTrJp3RPKuTEw1xz-42" value="PK,FK2" style="shape=partialRectangle;connectable=0;fillColor=none;top=0;left=0;bottom=0;right=0;fontStyle=1;overflow=hidden;html=1;whiteSpace=wrap;" vertex="1" parent="qn6DsTrJp3RPKuTEw1xz-41">
          <mxGeometry width="60" height="30" as="geometry">
            <mxRectangle width="60" height="30" as="alternateBounds" />
          </mxGeometry>
        </mxCell>
        <mxCell id="qn6DsTrJp3RPKuTEw1xz-43" value="receipt_id" style="shape=partialRectangle;connectable=0;fillColor=none;top=0;left=0;bottom=0;right=0;align=left;spacingLeft=6;fontStyle=5;overflow=hidden;html=1;whiteSpace=wrap;" vertex="1" parent="qn6DsTrJp3RPKuTEw1xz-41">
          <mxGeometry x="60" width="120" height="30" as="geometry">
            <mxRectangle width="120" height="30" as="alternateBounds" />
          </mxGeometry>
        </mxCell>
        <mxCell id="qn6DsTrJp3RPKuTEw1xz-44" value="" style="shape=tableRow;horizontal=0;startSize=0;swimlaneHead=0;swimlaneBody=0;fillColor=none;collapsible=0;dropTarget=0;points=[[0,0.5],[1,0.5]];portConstraint=eastwest;top=0;left=0;right=0;bottom=0;html=1;" vertex="1" parent="qn6DsTrJp3RPKuTEw1xz-37">
          <mxGeometry y="90" width="180" height="30" as="geometry" />
        </mxCell>
        <mxCell id="qn6DsTrJp3RPKuTEw1xz-45" value="" style="shape=partialRectangle;connectable=0;fillColor=none;top=0;left=0;bottom=0;right=0;editable=1;overflow=hidden;html=1;whiteSpace=wrap;" vertex="1" parent="qn6DsTrJp3RPKuTEw1xz-44">
          <mxGeometry width="60" height="30" as="geometry">
            <mxRectangle width="60" height="30" as="alternateBounds" />
          </mxGeometry>
        </mxCell>
        <mxCell id="qn6DsTrJp3RPKuTEw1xz-46" value="quantity" style="shape=partialRectangle;connectable=0;fillColor=none;top=0;left=0;bottom=0;right=0;align=left;spacingLeft=6;overflow=hidden;html=1;whiteSpace=wrap;" vertex="1" parent="qn6DsTrJp3RPKuTEw1xz-44">
          <mxGeometry x="60" width="120" height="30" as="geometry">
            <mxRectangle width="120" height="30" as="alternateBounds" />
          </mxGeometry>
        </mxCell>
        <mxCell id="qn6DsTrJp3RPKuTEw1xz-50" style="edgeStyle=orthogonalEdgeStyle;rounded=0;orthogonalLoop=1;jettySize=auto;html=1;entryX=1;entryY=0.5;entryDx=0;entryDy=0;" edge="1" parent="1" source="qn6DsTrJp3RPKuTEw1xz-38" target="2sS52Kku7xfb4uqSj1Oq-2">
          <mxGeometry relative="1" as="geometry" />
        </mxCell>
        <mxCell id="qn6DsTrJp3RPKuTEw1xz-51" value="Receipt" style="shape=table;startSize=30;container=1;collapsible=1;childLayout=tableLayout;fixedRows=1;rowLines=0;fontStyle=1;align=center;resizeLast=1;html=1;" vertex="1" parent="1">
          <mxGeometry x="740" y="320" width="180" height="140" as="geometry" />
        </mxCell>
        <mxCell id="qn6DsTrJp3RPKuTEw1xz-52" value="" style="shape=tableRow;horizontal=0;startSize=0;swimlaneHead=0;swimlaneBody=0;fillColor=none;collapsible=0;dropTarget=0;points=[[0,0.5],[1,0.5]];portConstraint=eastwest;top=0;left=0;right=0;bottom=1;" vertex="1" parent="qn6DsTrJp3RPKuTEw1xz-51">
          <mxGeometry y="30" width="180" height="30" as="geometry" />
        </mxCell>
        <mxCell id="qn6DsTrJp3RPKuTEw1xz-53" value="PK" style="shape=partialRectangle;connectable=0;fillColor=none;top=0;left=0;bottom=0;right=0;fontStyle=1;overflow=hidden;whiteSpace=wrap;html=1;" vertex="1" parent="qn6DsTrJp3RPKuTEw1xz-52">
          <mxGeometry width="30" height="30" as="geometry">
            <mxRectangle width="30" height="30" as="alternateBounds" />
          </mxGeometry>
        </mxCell>
        <mxCell id="qn6DsTrJp3RPKuTEw1xz-54" value="ID" style="shape=partialRectangle;connectable=0;fillColor=none;top=0;left=0;bottom=0;right=0;align=left;spacingLeft=6;fontStyle=5;overflow=hidden;whiteSpace=wrap;html=1;" vertex="1" parent="qn6DsTrJp3RPKuTEw1xz-52">
          <mxGeometry x="30" width="150" height="30" as="geometry">
            <mxRectangle width="150" height="30" as="alternateBounds" />
          </mxGeometry>
        </mxCell>
        <mxCell id="qn6DsTrJp3RPKuTEw1xz-55" value="" style="shape=tableRow;horizontal=0;startSize=0;swimlaneHead=0;swimlaneBody=0;fillColor=none;collapsible=0;dropTarget=0;points=[[0,0.5],[1,0.5]];portConstraint=eastwest;top=0;left=0;right=0;bottom=0;" vertex="1" parent="qn6DsTrJp3RPKuTEw1xz-51">
          <mxGeometry y="60" width="180" height="30" as="geometry" />
        </mxCell>
        <mxCell id="qn6DsTrJp3RPKuTEw1xz-56" value="" style="shape=partialRectangle;connectable=0;fillColor=none;top=0;left=0;bottom=0;right=0;editable=1;overflow=hidden;whiteSpace=wrap;html=1;" vertex="1" parent="qn6DsTrJp3RPKuTEw1xz-55">
          <mxGeometry width="30" height="30" as="geometry">
            <mxRectangle width="30" height="30" as="alternateBounds" />
          </mxGeometry>
        </mxCell>
        <mxCell id="qn6DsTrJp3RPKuTEw1xz-57" value="total_billing" style="shape=partialRectangle;connectable=0;fillColor=none;top=0;left=0;bottom=0;right=0;align=left;spacingLeft=6;overflow=hidden;whiteSpace=wrap;html=1;" vertex="1" parent="qn6DsTrJp3RPKuTEw1xz-55">
          <mxGeometry x="30" width="150" height="30" as="geometry">
            <mxRectangle width="150" height="30" as="alternateBounds" />
          </mxGeometry>
        </mxCell>
        <mxCell id="qn6DsTrJp3RPKuTEw1xz-58" value="" style="shape=tableRow;horizontal=0;startSize=0;swimlaneHead=0;swimlaneBody=0;fillColor=none;collapsible=0;dropTarget=0;points=[[0,0.5],[1,0.5]];portConstraint=eastwest;top=0;left=0;right=0;bottom=0;" vertex="1" parent="qn6DsTrJp3RPKuTEw1xz-51">
          <mxGeometry y="90" width="180" height="30" as="geometry" />
        </mxCell>
        <mxCell id="qn6DsTrJp3RPKuTEw1xz-59" value="" style="shape=partialRectangle;connectable=0;fillColor=none;top=0;left=0;bottom=0;right=0;editable=1;overflow=hidden;whiteSpace=wrap;html=1;" vertex="1" parent="qn6DsTrJp3RPKuTEw1xz-58">
          <mxGeometry width="30" height="30" as="geometry">
            <mxRectangle width="30" height="30" as="alternateBounds" />
          </mxGeometry>
        </mxCell>
        <mxCell id="qn6DsTrJp3RPKuTEw1xz-60" value="total_paid" style="shape=partialRectangle;connectable=0;fillColor=none;top=0;left=0;bottom=0;right=0;align=left;spacingLeft=6;overflow=hidden;whiteSpace=wrap;html=1;" vertex="1" parent="qn6DsTrJp3RPKuTEw1xz-58">
          <mxGeometry x="30" width="150" height="30" as="geometry">
            <mxRectangle width="150" height="30" as="alternateBounds" />
          </mxGeometry>
        </mxCell>
        <mxCell id="qn6DsTrJp3RPKuTEw1xz-61" value="" style="shape=tableRow;horizontal=0;startSize=0;swimlaneHead=0;swimlaneBody=0;fillColor=none;collapsible=0;dropTarget=0;points=[[0,0.5],[1,0.5]];portConstraint=eastwest;top=0;left=0;right=0;bottom=0;" vertex="1" parent="qn6DsTrJp3RPKuTEw1xz-51">
          <mxGeometry y="120" width="180" height="20" as="geometry" />
        </mxCell>
        <mxCell id="qn6DsTrJp3RPKuTEw1xz-62" value="" style="shape=partialRectangle;connectable=0;fillColor=none;top=0;left=0;bottom=0;right=0;editable=1;overflow=hidden;whiteSpace=wrap;html=1;" vertex="1" parent="qn6DsTrJp3RPKuTEw1xz-61">
          <mxGeometry width="30" height="20" as="geometry">
            <mxRectangle width="30" height="20" as="alternateBounds" />
          </mxGeometry>
        </mxCell>
        <mxCell id="qn6DsTrJp3RPKuTEw1xz-63" value="item_change" style="shape=partialRectangle;connectable=0;fillColor=none;top=0;left=0;bottom=0;right=0;align=left;spacingLeft=6;overflow=hidden;whiteSpace=wrap;html=1;" vertex="1" parent="qn6DsTrJp3RPKuTEw1xz-61">
          <mxGeometry x="30" width="150" height="20" as="geometry">
            <mxRectangle width="150" height="20" as="alternateBounds" />
          </mxGeometry>
        </mxCell>
        <mxCell id="qn6DsTrJp3RPKuTEw1xz-64" style="edgeStyle=orthogonalEdgeStyle;rounded=0;orthogonalLoop=1;jettySize=auto;html=1;exitX=1;exitY=0.5;exitDx=0;exitDy=0;entryX=0;entryY=0.5;entryDx=0;entryDy=0;" edge="1" parent="1" source="qn6DsTrJp3RPKuTEw1xz-41" target="qn6DsTrJp3RPKuTEw1xz-52">
          <mxGeometry relative="1" as="geometry" />
        </mxCell>
        <mxCell id="qn6DsTrJp3RPKuTEw1xz-65" value="book_catalogue" style="shape=table;startSize=30;container=1;collapsible=1;childLayout=tableLayout;fixedRows=1;rowLines=0;fontStyle=1;align=center;resizeLast=1;html=1;" vertex="1" parent="1">
          <mxGeometry x="490" y="600" width="180" height="180" as="geometry" />
        </mxCell>
        <mxCell id="qn6DsTrJp3RPKuTEw1xz-66" value="" style="shape=tableRow;horizontal=0;startSize=0;swimlaneHead=0;swimlaneBody=0;fillColor=none;collapsible=0;dropTarget=0;points=[[0,0.5],[1,0.5]];portConstraint=eastwest;top=0;left=0;right=0;bottom=1;" vertex="1" parent="qn6DsTrJp3RPKuTEw1xz-65">
          <mxGeometry y="30" width="180" height="30" as="geometry" />
        </mxCell>
        <mxCell id="qn6DsTrJp3RPKuTEw1xz-67" value="PK" style="shape=partialRectangle;connectable=0;fillColor=none;top=0;left=0;bottom=0;right=0;fontStyle=1;overflow=hidden;whiteSpace=wrap;html=1;" vertex="1" parent="qn6DsTrJp3RPKuTEw1xz-66">
          <mxGeometry width="30" height="30" as="geometry">
            <mxRectangle width="30" height="30" as="alternateBounds" />
          </mxGeometry>
        </mxCell>
        <mxCell id="qn6DsTrJp3RPKuTEw1xz-68" value="ISBN" style="shape=partialRectangle;connectable=0;fillColor=none;top=0;left=0;bottom=0;right=0;align=left;spacingLeft=6;fontStyle=5;overflow=hidden;whiteSpace=wrap;html=1;" vertex="1" parent="qn6DsTrJp3RPKuTEw1xz-66">
          <mxGeometry x="30" width="150" height="30" as="geometry">
            <mxRectangle width="150" height="30" as="alternateBounds" />
          </mxGeometry>
        </mxCell>
        <mxCell id="qn6DsTrJp3RPKuTEw1xz-69" value="" style="shape=tableRow;horizontal=0;startSize=0;swimlaneHead=0;swimlaneBody=0;fillColor=none;collapsible=0;dropTarget=0;points=[[0,0.5],[1,0.5]];portConstraint=eastwest;top=0;left=0;right=0;bottom=0;" vertex="1" parent="qn6DsTrJp3RPKuTEw1xz-65">
          <mxGeometry y="60" width="180" height="30" as="geometry" />
        </mxCell>
        <mxCell id="qn6DsTrJp3RPKuTEw1xz-70" value="" style="shape=partialRectangle;connectable=0;fillColor=none;top=0;left=0;bottom=0;right=0;editable=1;overflow=hidden;whiteSpace=wrap;html=1;" vertex="1" parent="qn6DsTrJp3RPKuTEw1xz-69">
          <mxGeometry width="30" height="30" as="geometry">
            <mxRectangle width="30" height="30" as="alternateBounds" />
          </mxGeometry>
        </mxCell>
        <mxCell id="qn6DsTrJp3RPKuTEw1xz-71" value="title" style="shape=partialRectangle;connectable=0;fillColor=none;top=0;left=0;bottom=0;right=0;align=left;spacingLeft=6;overflow=hidden;whiteSpace=wrap;html=1;" vertex="1" parent="qn6DsTrJp3RPKuTEw1xz-69">
          <mxGeometry x="30" width="150" height="30" as="geometry">
            <mxRectangle width="150" height="30" as="alternateBounds" />
          </mxGeometry>
        </mxCell>
        <mxCell id="qn6DsTrJp3RPKuTEw1xz-72" value="" style="shape=tableRow;horizontal=0;startSize=0;swimlaneHead=0;swimlaneBody=0;fillColor=none;collapsible=0;dropTarget=0;points=[[0,0.5],[1,0.5]];portConstraint=eastwest;top=0;left=0;right=0;bottom=0;" vertex="1" parent="qn6DsTrJp3RPKuTEw1xz-65">
          <mxGeometry y="90" width="180" height="30" as="geometry" />
        </mxCell>
        <mxCell id="qn6DsTrJp3RPKuTEw1xz-73" value="" style="shape=partialRectangle;connectable=0;fillColor=none;top=0;left=0;bottom=0;right=0;editable=1;overflow=hidden;whiteSpace=wrap;html=1;" vertex="1" parent="qn6DsTrJp3RPKuTEw1xz-72">
          <mxGeometry width="30" height="30" as="geometry">
            <mxRectangle width="30" height="30" as="alternateBounds" />
          </mxGeometry>
        </mxCell>
        <mxCell id="qn6DsTrJp3RPKuTEw1xz-74" value="author" style="shape=partialRectangle;connectable=0;fillColor=none;top=0;left=0;bottom=0;right=0;align=left;spacingLeft=6;overflow=hidden;whiteSpace=wrap;html=1;" vertex="1" parent="qn6DsTrJp3RPKuTEw1xz-72">
          <mxGeometry x="30" width="150" height="30" as="geometry">
            <mxRectangle width="150" height="30" as="alternateBounds" />
          </mxGeometry>
        </mxCell>
        <mxCell id="qn6DsTrJp3RPKuTEw1xz-75" value="" style="shape=tableRow;horizontal=0;startSize=0;swimlaneHead=0;swimlaneBody=0;fillColor=none;collapsible=0;dropTarget=0;points=[[0,0.5],[1,0.5]];portConstraint=eastwest;top=0;left=0;right=0;bottom=0;" vertex="1" parent="qn6DsTrJp3RPKuTEw1xz-65">
          <mxGeometry y="120" width="180" height="30" as="geometry" />
        </mxCell>
        <mxCell id="qn6DsTrJp3RPKuTEw1xz-76" value="&lt;b&gt;FK&lt;/b&gt;" style="shape=partialRectangle;connectable=0;fillColor=none;top=0;left=0;bottom=0;right=0;editable=1;overflow=hidden;whiteSpace=wrap;html=1;" vertex="1" parent="qn6DsTrJp3RPKuTEw1xz-75">
          <mxGeometry width="30" height="30" as="geometry">
            <mxRectangle width="30" height="30" as="alternateBounds" />
          </mxGeometry>
        </mxCell>
        <mxCell id="qn6DsTrJp3RPKuTEw1xz-77" value="&lt;b&gt;item_id&lt;/b&gt;" style="shape=partialRectangle;connectable=0;fillColor=none;top=0;left=0;bottom=0;right=0;align=left;spacingLeft=6;overflow=hidden;whiteSpace=wrap;html=1;" vertex="1" parent="qn6DsTrJp3RPKuTEw1xz-75">
          <mxGeometry x="30" width="150" height="30" as="geometry">
            <mxRectangle width="150" height="30" as="alternateBounds" />
          </mxGeometry>
        </mxCell>
        <mxCell id="qn6DsTrJp3RPKuTEw1xz-78" value="" style="shape=tableRow;horizontal=0;startSize=0;swimlaneHead=0;swimlaneBody=0;fillColor=none;collapsible=0;dropTarget=0;points=[[0,0.5],[1,0.5]];portConstraint=eastwest;top=0;left=0;right=0;bottom=0;" vertex="1" parent="qn6DsTrJp3RPKuTEw1xz-65">
          <mxGeometry y="150" width="180" height="30" as="geometry" />
        </mxCell>
        <mxCell id="qn6DsTrJp3RPKuTEw1xz-79" value="&lt;b&gt;FK&lt;/b&gt;" style="shape=partialRectangle;connectable=0;fillColor=none;top=0;left=0;bottom=0;right=0;editable=1;overflow=hidden;whiteSpace=wrap;html=1;" vertex="1" parent="qn6DsTrJp3RPKuTEw1xz-78">
          <mxGeometry width="30" height="30" as="geometry">
            <mxRectangle width="30" height="30" as="alternateBounds" />
          </mxGeometry>
        </mxCell>
        <mxCell id="qn6DsTrJp3RPKuTEw1xz-80" value="&lt;b&gt;genre_id&lt;/b&gt;" style="shape=partialRectangle;connectable=0;fillColor=none;top=0;left=0;bottom=0;right=0;align=left;spacingLeft=6;overflow=hidden;whiteSpace=wrap;html=1;" vertex="1" parent="qn6DsTrJp3RPKuTEw1xz-78">
          <mxGeometry x="30" width="150" height="30" as="geometry">
            <mxRectangle width="150" height="30" as="alternateBounds" />
          </mxGeometry>
        </mxCell>
        <mxCell id="qn6DsTrJp3RPKuTEw1xz-81" value="genre" style="shape=table;startSize=30;container=1;collapsible=1;childLayout=tableLayout;fixedRows=1;rowLines=0;fontStyle=1;align=center;resizeLast=1;html=1;" vertex="1" parent="1">
          <mxGeometry x="780" y="645" width="180" height="90" as="geometry" />
        </mxCell>
        <mxCell id="qn6DsTrJp3RPKuTEw1xz-82" value="" style="shape=tableRow;horizontal=0;startSize=0;swimlaneHead=0;swimlaneBody=0;fillColor=none;collapsible=0;dropTarget=0;points=[[0,0.5],[1,0.5]];portConstraint=eastwest;top=0;left=0;right=0;bottom=1;" vertex="1" parent="qn6DsTrJp3RPKuTEw1xz-81">
          <mxGeometry y="30" width="180" height="30" as="geometry" />
        </mxCell>
        <mxCell id="qn6DsTrJp3RPKuTEw1xz-83" value="PK" style="shape=partialRectangle;connectable=0;fillColor=none;top=0;left=0;bottom=0;right=0;fontStyle=1;overflow=hidden;whiteSpace=wrap;html=1;" vertex="1" parent="qn6DsTrJp3RPKuTEw1xz-82">
          <mxGeometry width="30" height="30" as="geometry">
            <mxRectangle width="30" height="30" as="alternateBounds" />
          </mxGeometry>
        </mxCell>
        <mxCell id="qn6DsTrJp3RPKuTEw1xz-84" value="id" style="shape=partialRectangle;connectable=0;fillColor=none;top=0;left=0;bottom=0;right=0;align=left;spacingLeft=6;fontStyle=5;overflow=hidden;whiteSpace=wrap;html=1;" vertex="1" parent="qn6DsTrJp3RPKuTEw1xz-82">
          <mxGeometry x="30" width="150" height="30" as="geometry">
            <mxRectangle width="150" height="30" as="alternateBounds" />
          </mxGeometry>
        </mxCell>
        <mxCell id="qn6DsTrJp3RPKuTEw1xz-85" value="" style="shape=tableRow;horizontal=0;startSize=0;swimlaneHead=0;swimlaneBody=0;fillColor=none;collapsible=0;dropTarget=0;points=[[0,0.5],[1,0.5]];portConstraint=eastwest;top=0;left=0;right=0;bottom=0;" vertex="1" parent="qn6DsTrJp3RPKuTEw1xz-81">
          <mxGeometry y="60" width="180" height="30" as="geometry" />
        </mxCell>
        <mxCell id="qn6DsTrJp3RPKuTEw1xz-86" value="" style="shape=partialRectangle;connectable=0;fillColor=none;top=0;left=0;bottom=0;right=0;editable=1;overflow=hidden;whiteSpace=wrap;html=1;" vertex="1" parent="qn6DsTrJp3RPKuTEw1xz-85">
          <mxGeometry width="30" height="30" as="geometry">
            <mxRectangle width="30" height="30" as="alternateBounds" />
          </mxGeometry>
        </mxCell>
        <mxCell id="qn6DsTrJp3RPKuTEw1xz-87" value="genre_name" style="shape=partialRectangle;connectable=0;fillColor=none;top=0;left=0;bottom=0;right=0;align=left;spacingLeft=6;overflow=hidden;whiteSpace=wrap;html=1;" vertex="1" parent="qn6DsTrJp3RPKuTEw1xz-85">
          <mxGeometry x="30" width="150" height="30" as="geometry">
            <mxRectangle width="150" height="30" as="alternateBounds" />
          </mxGeometry>
        </mxCell>
        <mxCell id="qn6DsTrJp3RPKuTEw1xz-89" style="edgeStyle=orthogonalEdgeStyle;rounded=0;orthogonalLoop=1;jettySize=auto;html=1;entryX=0;entryY=0.5;entryDx=0;entryDy=0;" edge="1" parent="1" source="qn6DsTrJp3RPKuTEw1xz-78" target="qn6DsTrJp3RPKuTEw1xz-82">
          <mxGeometry relative="1" as="geometry" />
        </mxCell>
        <mxCell id="qn6DsTrJp3RPKuTEw1xz-91" style="edgeStyle=orthogonalEdgeStyle;rounded=0;orthogonalLoop=1;jettySize=auto;html=1;exitX=0;exitY=0.5;exitDx=0;exitDy=0;entryX=1.014;entryY=0.8;entryDx=0;entryDy=0;entryPerimeter=0;" edge="1" parent="1" source="qn6DsTrJp3RPKuTEw1xz-75" target="2sS52Kku7xfb4uqSj1Oq-2">
          <mxGeometry relative="1" as="geometry" />
        </mxCell>
        <mxCell id="qn6DsTrJp3RPKuTEw1xz-92" value="Employee" style="shape=table;startSize=30;container=1;collapsible=1;childLayout=tableLayout;fixedRows=1;rowLines=0;fontStyle=1;align=center;resizeLast=1;html=1;" vertex="1" parent="1">
          <mxGeometry x="180" y="890" width="180" height="270" as="geometry" />
        </mxCell>
        <mxCell id="qn6DsTrJp3RPKuTEw1xz-93" value="" style="shape=tableRow;horizontal=0;startSize=0;swimlaneHead=0;swimlaneBody=0;fillColor=none;collapsible=0;dropTarget=0;points=[[0,0.5],[1,0.5]];portConstraint=eastwest;top=0;left=0;right=0;bottom=1;" vertex="1" parent="qn6DsTrJp3RPKuTEw1xz-92">
          <mxGeometry y="30" width="180" height="30" as="geometry" />
        </mxCell>
        <mxCell id="qn6DsTrJp3RPKuTEw1xz-94" value="PK" style="shape=partialRectangle;connectable=0;fillColor=none;top=0;left=0;bottom=0;right=0;fontStyle=1;overflow=hidden;whiteSpace=wrap;html=1;" vertex="1" parent="qn6DsTrJp3RPKuTEw1xz-93">
          <mxGeometry width="30" height="30" as="geometry">
            <mxRectangle width="30" height="30" as="alternateBounds" />
          </mxGeometry>
        </mxCell>
        <mxCell id="qn6DsTrJp3RPKuTEw1xz-95" value="ssn" style="shape=partialRectangle;connectable=0;fillColor=none;top=0;left=0;bottom=0;right=0;align=left;spacingLeft=6;fontStyle=5;overflow=hidden;whiteSpace=wrap;html=1;" vertex="1" parent="qn6DsTrJp3RPKuTEw1xz-93">
          <mxGeometry x="30" width="150" height="30" as="geometry">
            <mxRectangle width="150" height="30" as="alternateBounds" />
          </mxGeometry>
        </mxCell>
        <mxCell id="qn6DsTrJp3RPKuTEw1xz-96" value="" style="shape=tableRow;horizontal=0;startSize=0;swimlaneHead=0;swimlaneBody=0;fillColor=none;collapsible=0;dropTarget=0;points=[[0,0.5],[1,0.5]];portConstraint=eastwest;top=0;left=0;right=0;bottom=0;" vertex="1" parent="qn6DsTrJp3RPKuTEw1xz-92">
          <mxGeometry y="60" width="180" height="30" as="geometry" />
        </mxCell>
        <mxCell id="qn6DsTrJp3RPKuTEw1xz-97" value="" style="shape=partialRectangle;connectable=0;fillColor=none;top=0;left=0;bottom=0;right=0;editable=1;overflow=hidden;whiteSpace=wrap;html=1;" vertex="1" parent="qn6DsTrJp3RPKuTEw1xz-96">
          <mxGeometry width="30" height="30" as="geometry">
            <mxRectangle width="30" height="30" as="alternateBounds" />
          </mxGeometry>
        </mxCell>
        <mxCell id="qn6DsTrJp3RPKuTEw1xz-98" value="name_employee" style="shape=partialRectangle;connectable=0;fillColor=none;top=0;left=0;bottom=0;right=0;align=left;spacingLeft=6;overflow=hidden;whiteSpace=wrap;html=1;" vertex="1" parent="qn6DsTrJp3RPKuTEw1xz-96">
          <mxGeometry x="30" width="150" height="30" as="geometry">
            <mxRectangle width="150" height="30" as="alternateBounds" />
          </mxGeometry>
        </mxCell>
        <mxCell id="qn6DsTrJp3RPKuTEw1xz-99" value="" style="shape=tableRow;horizontal=0;startSize=0;swimlaneHead=0;swimlaneBody=0;fillColor=none;collapsible=0;dropTarget=0;points=[[0,0.5],[1,0.5]];portConstraint=eastwest;top=0;left=0;right=0;bottom=0;" vertex="1" parent="qn6DsTrJp3RPKuTEw1xz-92">
          <mxGeometry y="90" width="180" height="30" as="geometry" />
        </mxCell>
        <mxCell id="qn6DsTrJp3RPKuTEw1xz-100" value="" style="shape=partialRectangle;connectable=0;fillColor=none;top=0;left=0;bottom=0;right=0;editable=1;overflow=hidden;whiteSpace=wrap;html=1;" vertex="1" parent="qn6DsTrJp3RPKuTEw1xz-99">
          <mxGeometry width="30" height="30" as="geometry">
            <mxRectangle width="30" height="30" as="alternateBounds" />
          </mxGeometry>
        </mxCell>
        <mxCell id="qn6DsTrJp3RPKuTEw1xz-101" value="address" style="shape=partialRectangle;connectable=0;fillColor=none;top=0;left=0;bottom=0;right=0;align=left;spacingLeft=6;overflow=hidden;whiteSpace=wrap;html=1;" vertex="1" parent="qn6DsTrJp3RPKuTEw1xz-99">
          <mxGeometry x="30" width="150" height="30" as="geometry">
            <mxRectangle width="150" height="30" as="alternateBounds" />
          </mxGeometry>
        </mxCell>
        <mxCell id="qn6DsTrJp3RPKuTEw1xz-102" value="" style="shape=tableRow;horizontal=0;startSize=0;swimlaneHead=0;swimlaneBody=0;fillColor=none;collapsible=0;dropTarget=0;points=[[0,0.5],[1,0.5]];portConstraint=eastwest;top=0;left=0;right=0;bottom=0;" vertex="1" parent="qn6DsTrJp3RPKuTEw1xz-92">
          <mxGeometry y="120" width="180" height="30" as="geometry" />
        </mxCell>
        <mxCell id="qn6DsTrJp3RPKuTEw1xz-103" value="" style="shape=partialRectangle;connectable=0;fillColor=none;top=0;left=0;bottom=0;right=0;editable=1;overflow=hidden;whiteSpace=wrap;html=1;" vertex="1" parent="qn6DsTrJp3RPKuTEw1xz-102">
          <mxGeometry width="30" height="30" as="geometry">
            <mxRectangle width="30" height="30" as="alternateBounds" />
          </mxGeometry>
        </mxCell>
        <mxCell id="qn6DsTrJp3RPKuTEw1xz-104" value="sex" style="shape=partialRectangle;connectable=0;fillColor=none;top=0;left=0;bottom=0;right=0;align=left;spacingLeft=6;overflow=hidden;whiteSpace=wrap;html=1;" vertex="1" parent="qn6DsTrJp3RPKuTEw1xz-102">
          <mxGeometry x="30" width="150" height="30" as="geometry">
            <mxRectangle width="150" height="30" as="alternateBounds" />
          </mxGeometry>
        </mxCell>
        <mxCell id="qn6DsTrJp3RPKuTEw1xz-105" value="" style="shape=tableRow;horizontal=0;startSize=0;swimlaneHead=0;swimlaneBody=0;fillColor=none;collapsible=0;dropTarget=0;points=[[0,0.5],[1,0.5]];portConstraint=eastwest;top=0;left=0;right=0;bottom=0;" vertex="1" parent="qn6DsTrJp3RPKuTEw1xz-92">
          <mxGeometry y="150" width="180" height="30" as="geometry" />
        </mxCell>
        <mxCell id="qn6DsTrJp3RPKuTEw1xz-106" value="" style="shape=partialRectangle;connectable=0;fillColor=none;top=0;left=0;bottom=0;right=0;editable=1;overflow=hidden;whiteSpace=wrap;html=1;" vertex="1" parent="qn6DsTrJp3RPKuTEw1xz-105">
          <mxGeometry width="30" height="30" as="geometry">
            <mxRectangle width="30" height="30" as="alternateBounds" />
          </mxGeometry>
        </mxCell>
        <mxCell id="qn6DsTrJp3RPKuTEw1xz-107" value="salary" style="shape=partialRectangle;connectable=0;fillColor=none;top=0;left=0;bottom=0;right=0;align=left;spacingLeft=6;overflow=hidden;whiteSpace=wrap;html=1;" vertex="1" parent="qn6DsTrJp3RPKuTEw1xz-105">
          <mxGeometry x="30" width="150" height="30" as="geometry">
            <mxRectangle width="150" height="30" as="alternateBounds" />
          </mxGeometry>
        </mxCell>
        <mxCell id="qn6DsTrJp3RPKuTEw1xz-108" value="" style="shape=tableRow;horizontal=0;startSize=0;swimlaneHead=0;swimlaneBody=0;fillColor=none;collapsible=0;dropTarget=0;points=[[0,0.5],[1,0.5]];portConstraint=eastwest;top=0;left=0;right=0;bottom=0;" vertex="1" parent="qn6DsTrJp3RPKuTEw1xz-92">
          <mxGeometry y="180" width="180" height="30" as="geometry" />
        </mxCell>
        <mxCell id="qn6DsTrJp3RPKuTEw1xz-109" value="" style="shape=partialRectangle;connectable=0;fillColor=none;top=0;left=0;bottom=0;right=0;editable=1;overflow=hidden;whiteSpace=wrap;html=1;" vertex="1" parent="qn6DsTrJp3RPKuTEw1xz-108">
          <mxGeometry width="30" height="30" as="geometry">
            <mxRectangle width="30" height="30" as="alternateBounds" />
          </mxGeometry>
        </mxCell>
        <mxCell id="qn6DsTrJp3RPKuTEw1xz-110" value="b_date" style="shape=partialRectangle;connectable=0;fillColor=none;top=0;left=0;bottom=0;right=0;align=left;spacingLeft=6;overflow=hidden;whiteSpace=wrap;html=1;" vertex="1" parent="qn6DsTrJp3RPKuTEw1xz-108">
          <mxGeometry x="30" width="150" height="30" as="geometry">
            <mxRectangle width="150" height="30" as="alternateBounds" />
          </mxGeometry>
        </mxCell>
        <mxCell id="qn6DsTrJp3RPKuTEw1xz-111" value="" style="shape=tableRow;horizontal=0;startSize=0;swimlaneHead=0;swimlaneBody=0;fillColor=none;collapsible=0;dropTarget=0;points=[[0,0.5],[1,0.5]];portConstraint=eastwest;top=0;left=0;right=0;bottom=0;" vertex="1" parent="qn6DsTrJp3RPKuTEw1xz-92">
          <mxGeometry y="210" width="180" height="30" as="geometry" />
        </mxCell>
        <mxCell id="qn6DsTrJp3RPKuTEw1xz-112" value="" style="shape=partialRectangle;connectable=0;fillColor=none;top=0;left=0;bottom=0;right=0;editable=1;overflow=hidden;whiteSpace=wrap;html=1;" vertex="1" parent="qn6DsTrJp3RPKuTEw1xz-111">
          <mxGeometry width="30" height="30" as="geometry">
            <mxRectangle width="30" height="30" as="alternateBounds" />
          </mxGeometry>
        </mxCell>
        <mxCell id="qn6DsTrJp3RPKuTEw1xz-113" value="start-date" style="shape=partialRectangle;connectable=0;fillColor=none;top=0;left=0;bottom=0;right=0;align=left;spacingLeft=6;overflow=hidden;whiteSpace=wrap;html=1;" vertex="1" parent="qn6DsTrJp3RPKuTEw1xz-111">
          <mxGeometry x="30" width="150" height="30" as="geometry">
            <mxRectangle width="150" height="30" as="alternateBounds" />
          </mxGeometry>
        </mxCell>
        <mxCell id="qn6DsTrJp3RPKuTEw1xz-234" value="" style="shape=tableRow;horizontal=0;startSize=0;swimlaneHead=0;swimlaneBody=0;fillColor=none;collapsible=0;dropTarget=0;points=[[0,0.5],[1,0.5]];portConstraint=eastwest;top=0;left=0;right=0;bottom=0;" vertex="1" parent="qn6DsTrJp3RPKuTEw1xz-92">
          <mxGeometry y="240" width="180" height="30" as="geometry" />
        </mxCell>
        <mxCell id="qn6DsTrJp3RPKuTEw1xz-235" value="" style="shape=partialRectangle;connectable=0;fillColor=none;top=0;left=0;bottom=0;right=0;editable=1;overflow=hidden;whiteSpace=wrap;html=1;" vertex="1" parent="qn6DsTrJp3RPKuTEw1xz-234">
          <mxGeometry width="30" height="30" as="geometry">
            <mxRectangle width="30" height="30" as="alternateBounds" />
          </mxGeometry>
        </mxCell>
        <mxCell id="qn6DsTrJp3RPKuTEw1xz-236" value="supervising" style="shape=partialRectangle;connectable=0;fillColor=none;top=0;left=0;bottom=0;right=0;align=left;spacingLeft=6;overflow=hidden;whiteSpace=wrap;html=1;" vertex="1" parent="qn6DsTrJp3RPKuTEw1xz-234">
          <mxGeometry x="30" width="150" height="30" as="geometry">
            <mxRectangle width="150" height="30" as="alternateBounds" />
          </mxGeometry>
        </mxCell>
        <mxCell id="qn6DsTrJp3RPKuTEw1xz-114" value="branch" style="shape=table;startSize=30;container=1;collapsible=1;childLayout=tableLayout;fixedRows=1;rowLines=0;fontStyle=1;align=center;resizeLast=1;html=1;" vertex="1" parent="1">
          <mxGeometry x="750" y="910" width="180" height="180" as="geometry" />
        </mxCell>
        <mxCell id="qn6DsTrJp3RPKuTEw1xz-115" value="" style="shape=tableRow;horizontal=0;startSize=0;swimlaneHead=0;swimlaneBody=0;fillColor=none;collapsible=0;dropTarget=0;points=[[0,0.5],[1,0.5]];portConstraint=eastwest;top=0;left=0;right=0;bottom=1;" vertex="1" parent="qn6DsTrJp3RPKuTEw1xz-114">
          <mxGeometry y="30" width="180" height="30" as="geometry" />
        </mxCell>
        <mxCell id="qn6DsTrJp3RPKuTEw1xz-116" value="PK" style="shape=partialRectangle;connectable=0;fillColor=none;top=0;left=0;bottom=0;right=0;fontStyle=1;overflow=hidden;whiteSpace=wrap;html=1;" vertex="1" parent="qn6DsTrJp3RPKuTEw1xz-115">
          <mxGeometry width="30" height="30" as="geometry">
            <mxRectangle width="30" height="30" as="alternateBounds" />
          </mxGeometry>
        </mxCell>
        <mxCell id="qn6DsTrJp3RPKuTEw1xz-117" value="id" style="shape=partialRectangle;connectable=0;fillColor=none;top=0;left=0;bottom=0;right=0;align=left;spacingLeft=6;fontStyle=5;overflow=hidden;whiteSpace=wrap;html=1;" vertex="1" parent="qn6DsTrJp3RPKuTEw1xz-115">
          <mxGeometry x="30" width="150" height="30" as="geometry">
            <mxRectangle width="150" height="30" as="alternateBounds" />
          </mxGeometry>
        </mxCell>
        <mxCell id="qn6DsTrJp3RPKuTEw1xz-118" value="" style="shape=tableRow;horizontal=0;startSize=0;swimlaneHead=0;swimlaneBody=0;fillColor=none;collapsible=0;dropTarget=0;points=[[0,0.5],[1,0.5]];portConstraint=eastwest;top=0;left=0;right=0;bottom=0;" vertex="1" parent="qn6DsTrJp3RPKuTEw1xz-114">
          <mxGeometry y="60" width="180" height="30" as="geometry" />
        </mxCell>
        <mxCell id="qn6DsTrJp3RPKuTEw1xz-119" value="" style="shape=partialRectangle;connectable=0;fillColor=none;top=0;left=0;bottom=0;right=0;editable=1;overflow=hidden;whiteSpace=wrap;html=1;" vertex="1" parent="qn6DsTrJp3RPKuTEw1xz-118">
          <mxGeometry width="30" height="30" as="geometry">
            <mxRectangle width="30" height="30" as="alternateBounds" />
          </mxGeometry>
        </mxCell>
        <mxCell id="qn6DsTrJp3RPKuTEw1xz-120" value="name_branch" style="shape=partialRectangle;connectable=0;fillColor=none;top=0;left=0;bottom=0;right=0;align=left;spacingLeft=6;overflow=hidden;whiteSpace=wrap;html=1;" vertex="1" parent="qn6DsTrJp3RPKuTEw1xz-118">
          <mxGeometry x="30" width="150" height="30" as="geometry">
            <mxRectangle width="150" height="30" as="alternateBounds" />
          </mxGeometry>
        </mxCell>
        <mxCell id="qn6DsTrJp3RPKuTEw1xz-121" value="" style="shape=tableRow;horizontal=0;startSize=0;swimlaneHead=0;swimlaneBody=0;fillColor=none;collapsible=0;dropTarget=0;points=[[0,0.5],[1,0.5]];portConstraint=eastwest;top=0;left=0;right=0;bottom=0;" vertex="1" parent="qn6DsTrJp3RPKuTEw1xz-114">
          <mxGeometry y="90" width="180" height="30" as="geometry" />
        </mxCell>
        <mxCell id="qn6DsTrJp3RPKuTEw1xz-122" value="" style="shape=partialRectangle;connectable=0;fillColor=none;top=0;left=0;bottom=0;right=0;editable=1;overflow=hidden;whiteSpace=wrap;html=1;" vertex="1" parent="qn6DsTrJp3RPKuTEw1xz-121">
          <mxGeometry width="30" height="30" as="geometry">
            <mxRectangle width="30" height="30" as="alternateBounds" />
          </mxGeometry>
        </mxCell>
        <mxCell id="qn6DsTrJp3RPKuTEw1xz-123" value="location" style="shape=partialRectangle;connectable=0;fillColor=none;top=0;left=0;bottom=0;right=0;align=left;spacingLeft=6;overflow=hidden;whiteSpace=wrap;html=1;" vertex="1" parent="qn6DsTrJp3RPKuTEw1xz-121">
          <mxGeometry x="30" width="150" height="30" as="geometry">
            <mxRectangle width="150" height="30" as="alternateBounds" />
          </mxGeometry>
        </mxCell>
        <mxCell id="qn6DsTrJp3RPKuTEw1xz-124" value="" style="shape=tableRow;horizontal=0;startSize=0;swimlaneHead=0;swimlaneBody=0;fillColor=none;collapsible=0;dropTarget=0;points=[[0,0.5],[1,0.5]];portConstraint=eastwest;top=0;left=0;right=0;bottom=0;" vertex="1" parent="qn6DsTrJp3RPKuTEw1xz-114">
          <mxGeometry y="120" width="180" height="30" as="geometry" />
        </mxCell>
        <mxCell id="qn6DsTrJp3RPKuTEw1xz-125" value="" style="shape=partialRectangle;connectable=0;fillColor=none;top=0;left=0;bottom=0;right=0;editable=1;overflow=hidden;whiteSpace=wrap;html=1;" vertex="1" parent="qn6DsTrJp3RPKuTEw1xz-124">
          <mxGeometry width="30" height="30" as="geometry">
            <mxRectangle width="30" height="30" as="alternateBounds" />
          </mxGeometry>
        </mxCell>
        <mxCell id="qn6DsTrJp3RPKuTEw1xz-126" value="number_of_employees" style="shape=partialRectangle;connectable=0;fillColor=none;top=0;left=0;bottom=0;right=0;align=left;spacingLeft=6;overflow=hidden;whiteSpace=wrap;html=1;" vertex="1" parent="qn6DsTrJp3RPKuTEw1xz-124">
          <mxGeometry x="30" width="150" height="30" as="geometry">
            <mxRectangle width="150" height="30" as="alternateBounds" />
          </mxGeometry>
        </mxCell>
        <mxCell id="qn6DsTrJp3RPKuTEw1xz-181" value="" style="shape=tableRow;horizontal=0;startSize=0;swimlaneHead=0;swimlaneBody=0;fillColor=none;collapsible=0;dropTarget=0;points=[[0,0.5],[1,0.5]];portConstraint=eastwest;top=0;left=0;right=0;bottom=0;" vertex="1" parent="qn6DsTrJp3RPKuTEw1xz-114">
          <mxGeometry y="150" width="180" height="30" as="geometry" />
        </mxCell>
        <mxCell id="qn6DsTrJp3RPKuTEw1xz-182" value="&lt;b&gt;FK&lt;/b&gt;" style="shape=partialRectangle;connectable=0;fillColor=none;top=0;left=0;bottom=0;right=0;editable=1;overflow=hidden;whiteSpace=wrap;html=1;" vertex="1" parent="qn6DsTrJp3RPKuTEw1xz-181">
          <mxGeometry width="30" height="30" as="geometry">
            <mxRectangle width="30" height="30" as="alternateBounds" />
          </mxGeometry>
        </mxCell>
        <mxCell id="qn6DsTrJp3RPKuTEw1xz-183" value="&lt;b&gt;manager_ssn&lt;/b&gt;" style="shape=partialRectangle;connectable=0;fillColor=none;top=0;left=0;bottom=0;right=0;align=left;spacingLeft=6;overflow=hidden;whiteSpace=wrap;html=1;" vertex="1" parent="qn6DsTrJp3RPKuTEw1xz-181">
          <mxGeometry x="30" width="150" height="30" as="geometry">
            <mxRectangle width="150" height="30" as="alternateBounds" />
          </mxGeometry>
        </mxCell>
        <mxCell id="qn6DsTrJp3RPKuTEw1xz-154" value="item_warehouse" style="shape=table;startSize=30;container=1;collapsible=1;childLayout=tableLayout;fixedRows=1;rowLines=0;fontStyle=1;align=center;resizeLast=1;html=1;whiteSpace=wrap;" vertex="1" parent="1">
          <mxGeometry x="480" y="70" width="180" height="120" as="geometry" />
        </mxCell>
        <mxCell id="qn6DsTrJp3RPKuTEw1xz-155" value="" style="shape=tableRow;horizontal=0;startSize=0;swimlaneHead=0;swimlaneBody=0;fillColor=none;collapsible=0;dropTarget=0;points=[[0,0.5],[1,0.5]];portConstraint=eastwest;top=0;left=0;right=0;bottom=0;html=1;" vertex="1" parent="qn6DsTrJp3RPKuTEw1xz-154">
          <mxGeometry y="30" width="180" height="30" as="geometry" />
        </mxCell>
        <mxCell id="qn6DsTrJp3RPKuTEw1xz-156" value="PK,FK1" style="shape=partialRectangle;connectable=0;fillColor=none;top=0;left=0;bottom=0;right=0;fontStyle=1;overflow=hidden;html=1;whiteSpace=wrap;" vertex="1" parent="qn6DsTrJp3RPKuTEw1xz-155">
          <mxGeometry width="60" height="30" as="geometry">
            <mxRectangle width="60" height="30" as="alternateBounds" />
          </mxGeometry>
        </mxCell>
        <mxCell id="qn6DsTrJp3RPKuTEw1xz-157" value="item_id" style="shape=partialRectangle;connectable=0;fillColor=none;top=0;left=0;bottom=0;right=0;align=left;spacingLeft=6;fontStyle=5;overflow=hidden;html=1;whiteSpace=wrap;" vertex="1" parent="qn6DsTrJp3RPKuTEw1xz-155">
          <mxGeometry x="60" width="120" height="30" as="geometry">
            <mxRectangle width="120" height="30" as="alternateBounds" />
          </mxGeometry>
        </mxCell>
        <mxCell id="qn6DsTrJp3RPKuTEw1xz-158" value="" style="shape=tableRow;horizontal=0;startSize=0;swimlaneHead=0;swimlaneBody=0;fillColor=none;collapsible=0;dropTarget=0;points=[[0,0.5],[1,0.5]];portConstraint=eastwest;top=0;left=0;right=0;bottom=1;html=1;" vertex="1" parent="qn6DsTrJp3RPKuTEw1xz-154">
          <mxGeometry y="60" width="180" height="30" as="geometry" />
        </mxCell>
        <mxCell id="qn6DsTrJp3RPKuTEw1xz-159" value="PK,FK2" style="shape=partialRectangle;connectable=0;fillColor=none;top=0;left=0;bottom=0;right=0;fontStyle=1;overflow=hidden;html=1;whiteSpace=wrap;" vertex="1" parent="qn6DsTrJp3RPKuTEw1xz-158">
          <mxGeometry width="60" height="30" as="geometry">
            <mxRectangle width="60" height="30" as="alternateBounds" />
          </mxGeometry>
        </mxCell>
        <mxCell id="qn6DsTrJp3RPKuTEw1xz-160" value="warehouse_id" style="shape=partialRectangle;connectable=0;fillColor=none;top=0;left=0;bottom=0;right=0;align=left;spacingLeft=6;fontStyle=5;overflow=hidden;html=1;whiteSpace=wrap;" vertex="1" parent="qn6DsTrJp3RPKuTEw1xz-158">
          <mxGeometry x="60" width="120" height="30" as="geometry">
            <mxRectangle width="120" height="30" as="alternateBounds" />
          </mxGeometry>
        </mxCell>
        <mxCell id="qn6DsTrJp3RPKuTEw1xz-161" value="" style="shape=tableRow;horizontal=0;startSize=0;swimlaneHead=0;swimlaneBody=0;fillColor=none;collapsible=0;dropTarget=0;points=[[0,0.5],[1,0.5]];portConstraint=eastwest;top=0;left=0;right=0;bottom=0;html=1;" vertex="1" parent="qn6DsTrJp3RPKuTEw1xz-154">
          <mxGeometry y="90" width="180" height="30" as="geometry" />
        </mxCell>
        <mxCell id="qn6DsTrJp3RPKuTEw1xz-162" value="" style="shape=partialRectangle;connectable=0;fillColor=none;top=0;left=0;bottom=0;right=0;editable=1;overflow=hidden;html=1;whiteSpace=wrap;" vertex="1" parent="qn6DsTrJp3RPKuTEw1xz-161">
          <mxGeometry width="60" height="30" as="geometry">
            <mxRectangle width="60" height="30" as="alternateBounds" />
          </mxGeometry>
        </mxCell>
        <mxCell id="qn6DsTrJp3RPKuTEw1xz-163" value="warehouse_stock" style="shape=partialRectangle;connectable=0;fillColor=none;top=0;left=0;bottom=0;right=0;align=left;spacingLeft=6;overflow=hidden;html=1;whiteSpace=wrap;" vertex="1" parent="qn6DsTrJp3RPKuTEw1xz-161">
          <mxGeometry x="60" width="120" height="30" as="geometry">
            <mxRectangle width="120" height="30" as="alternateBounds" />
          </mxGeometry>
        </mxCell>
        <mxCell id="qn6DsTrJp3RPKuTEw1xz-164" style="edgeStyle=orthogonalEdgeStyle;rounded=0;orthogonalLoop=1;jettySize=auto;html=1;entryX=0.014;entryY=0.827;entryDx=0;entryDy=0;entryPerimeter=0;" edge="1" parent="1" source="qn6DsTrJp3RPKuTEw1xz-158" target="qn6DsTrJp3RPKuTEw1xz-17">
          <mxGeometry relative="1" as="geometry" />
        </mxCell>
        <mxCell id="qn6DsTrJp3RPKuTEw1xz-165" style="edgeStyle=orthogonalEdgeStyle;rounded=0;orthogonalLoop=1;jettySize=auto;html=1;entryX=0;entryY=0.5;entryDx=0;entryDy=0;" edge="1" parent="1" source="2sS52Kku7xfb4uqSj1Oq-50" target="qn6DsTrJp3RPKuTEw1xz-17">
          <mxGeometry relative="1" as="geometry">
            <Array as="points">
              <mxPoint x="690" y="545" />
              <mxPoint x="690" y="105" />
            </Array>
          </mxGeometry>
        </mxCell>
        <mxCell id="qn6DsTrJp3RPKuTEw1xz-167" style="edgeStyle=orthogonalEdgeStyle;rounded=0;orthogonalLoop=1;jettySize=auto;html=1;entryX=1.02;entryY=0.278;entryDx=0;entryDy=0;entryPerimeter=0;" edge="1" parent="1" source="qn6DsTrJp3RPKuTEw1xz-155" target="2sS52Kku7xfb4uqSj1Oq-2">
          <mxGeometry relative="1" as="geometry" />
        </mxCell>
        <mxCell id="qn6DsTrJp3RPKuTEw1xz-184" style="edgeStyle=orthogonalEdgeStyle;rounded=0;orthogonalLoop=1;jettySize=auto;html=1;entryX=1;entryY=0.5;entryDx=0;entryDy=0;" edge="1" parent="1" source="qn6DsTrJp3RPKuTEw1xz-181" target="qn6DsTrJp3RPKuTEw1xz-93">
          <mxGeometry relative="1" as="geometry" />
        </mxCell>
        <mxCell id="qn6DsTrJp3RPKuTEw1xz-197" value="Supervision" style="shape=table;startSize=30;container=1;collapsible=1;childLayout=tableLayout;fixedRows=1;rowLines=0;fontStyle=1;align=center;resizeLast=1;html=1;whiteSpace=wrap;" vertex="1" parent="1">
          <mxGeometry x="160" y="1200" width="180" height="90" as="geometry" />
        </mxCell>
        <mxCell id="qn6DsTrJp3RPKuTEw1xz-198" value="" style="shape=tableRow;horizontal=0;startSize=0;swimlaneHead=0;swimlaneBody=0;fillColor=none;collapsible=0;dropTarget=0;points=[[0,0.5],[1,0.5]];portConstraint=eastwest;top=0;left=0;right=0;bottom=0;html=1;" vertex="1" parent="qn6DsTrJp3RPKuTEw1xz-197">
          <mxGeometry y="30" width="180" height="30" as="geometry" />
        </mxCell>
        <mxCell id="qn6DsTrJp3RPKuTEw1xz-199" value="PK,FK1" style="shape=partialRectangle;connectable=0;fillColor=none;top=0;left=0;bottom=0;right=0;fontStyle=1;overflow=hidden;html=1;whiteSpace=wrap;" vertex="1" parent="qn6DsTrJp3RPKuTEw1xz-198">
          <mxGeometry width="60" height="30" as="geometry">
            <mxRectangle width="60" height="30" as="alternateBounds" />
          </mxGeometry>
        </mxCell>
        <mxCell id="qn6DsTrJp3RPKuTEw1xz-200" value="supervisor_ssn" style="shape=partialRectangle;connectable=0;fillColor=none;top=0;left=0;bottom=0;right=0;align=left;spacingLeft=6;fontStyle=5;overflow=hidden;html=1;whiteSpace=wrap;" vertex="1" parent="qn6DsTrJp3RPKuTEw1xz-198">
          <mxGeometry x="60" width="120" height="30" as="geometry">
            <mxRectangle width="120" height="30" as="alternateBounds" />
          </mxGeometry>
        </mxCell>
        <mxCell id="qn6DsTrJp3RPKuTEw1xz-201" value="" style="shape=tableRow;horizontal=0;startSize=0;swimlaneHead=0;swimlaneBody=0;fillColor=none;collapsible=0;dropTarget=0;points=[[0,0.5],[1,0.5]];portConstraint=eastwest;top=0;left=0;right=0;bottom=1;html=1;" vertex="1" parent="qn6DsTrJp3RPKuTEw1xz-197">
          <mxGeometry y="60" width="180" height="30" as="geometry" />
        </mxCell>
        <mxCell id="qn6DsTrJp3RPKuTEw1xz-202" value="PK,FK2" style="shape=partialRectangle;connectable=0;fillColor=none;top=0;left=0;bottom=0;right=0;fontStyle=1;overflow=hidden;html=1;whiteSpace=wrap;" vertex="1" parent="qn6DsTrJp3RPKuTEw1xz-201">
          <mxGeometry width="60" height="30" as="geometry">
            <mxRectangle width="60" height="30" as="alternateBounds" />
          </mxGeometry>
        </mxCell>
        <mxCell id="qn6DsTrJp3RPKuTEw1xz-203" value="employee_ssn" style="shape=partialRectangle;connectable=0;fillColor=none;top=0;left=0;bottom=0;right=0;align=left;spacingLeft=6;fontStyle=5;overflow=hidden;html=1;whiteSpace=wrap;" vertex="1" parent="qn6DsTrJp3RPKuTEw1xz-201">
          <mxGeometry x="60" width="120" height="30" as="geometry">
            <mxRectangle width="120" height="30" as="alternateBounds" />
          </mxGeometry>
        </mxCell>
        <mxCell id="qn6DsTrJp3RPKuTEw1xz-210" style="edgeStyle=orthogonalEdgeStyle;rounded=0;orthogonalLoop=1;jettySize=auto;html=1;entryX=0;entryY=0.5;entryDx=0;entryDy=0;exitX=0;exitY=0.5;exitDx=0;exitDy=0;" edge="1" parent="1" source="qn6DsTrJp3RPKuTEw1xz-198" target="qn6DsTrJp3RPKuTEw1xz-93">
          <mxGeometry relative="1" as="geometry" />
        </mxCell>
        <mxCell id="qn6DsTrJp3RPKuTEw1xz-211" style="edgeStyle=orthogonalEdgeStyle;rounded=0;orthogonalLoop=1;jettySize=auto;html=1;entryX=0.001;entryY=0.267;entryDx=0;entryDy=0;entryPerimeter=0;exitX=0;exitY=0.5;exitDx=0;exitDy=0;" edge="1" parent="1" source="qn6DsTrJp3RPKuTEw1xz-201" target="qn6DsTrJp3RPKuTEw1xz-93">
          <mxGeometry relative="1" as="geometry">
            <mxPoint x="130" y="920" as="targetPoint" />
          </mxGeometry>
        </mxCell>
      </root>
    </mxGraphModel>
  </diagram>
</mxfile>
